<?xml version="1.0" encoding="UTF-8" standalone="no"?>
<!DOCTYPE svg PUBLIC "-//W3C//DTD SVG 1.1//EN" "http://www.w3.org/Graphics/SVG/1.1/DTD/svg11.dtd">
<svg width="128px" height="128px" viewBox="0 0 128 128" version="1.1" xmlns="http://www.w3.org/2000/svg" xmlns:xlink="http://www.w3.org/1999/xlink">
    <path d="M45.204,69.199L42.435,71.377C42.435,71.377 41.418,82.737 41.123,83.906C41.123,83.906 38.502,101.82 58.889,112.161C58.889,112.161 65.878,114.195 68.36,120.749C68.36,120.749 77.243,136.042 94.567,122.209C94.567,122.209 100.538,115.794 93.838,107.353C93.838,107.353 90.49,102.977 90.926,100.066C90.926,100.066 72.288,108.953 66.752,91.764C66.752,91.764 63.262,108.658 55.252,99.053C47.242,89.439 42.87,81.434 45.204,69.199ZM67.043,89.874C67.043,89.874 67.921,76.913 79.425,77.353C79.425,77.353 96.897,76.479 91.073,86.231L91.073,84.78C91.073,84.78 78.987,79.974 67.921,88.126L67.043,89.874ZM28.454,5.997C28.454,5.997 29.184,0.026 41.853,0.465C41.853,0.465 82.337,-6.089 93.403,30.023C93.403,30.023 96.544,33.325 96.315,35.851C96.315,35.851 104.181,48.225 95.584,55.07L95.002,53.61C95.002,53.61 111.309,23.474 47.09,65.848C47.09,65.848 33.408,73.272 29.184,72.546C29.184,72.546 26.272,61.771 23.798,58.277C21.318,54.778 21.174,44.582 21.174,44.582C21.174,44.582 20.882,26.09 18.262,25.65C18.262,25.65 11.712,10.218 28.454,5.997Z" style="fill:#18181b;"/>
</svg>
