<?xml version="1.0" standalone="no"?>
<!DOCTYPE svg PUBLIC "-//W3C//DTD SVG 1.1//EN" "http://www.w3.org/Graphics/SVG/1.1/DTD/svg11.dtd" >
<svg xmlns="http://www.w3.org/2000/svg">
<metadata>
Created by FontPrep 20130207 at Sun Feb  5 16:57:21 2017
 By Rune Warhuus
Copyright (C) 2016 Hoefler &#38; Co. http://www.typography.com
</metadata>
<defs>
<font id="447079189911f3753eaf6c5a84737d4a" horiz-adv-x='1024' >
  <font-face 
    font-family="OperatorMono-Book"
    font-weight="325"
    font-stretch="normal"
    units-per-em="2048"
    panose-1="2 0 0 9 0 0 0 0 0 0"
    ascent="1638"
    descent="-410"
    x-height="1004"
    cap-height="1270"
    bbox="-20 -590 1290.03 2343"
    underline-thickness="131"
    underline-position="-104"
    unicode-range="U+0020-E10D"
  />
<missing-glyph 
d="M563 492l-395 -799h790zM121 -156l381 770l-381 770v-1540zM1006 1384l-381 -770l381 -770v1540zM168 1536l395 -799l395 799h-790zM10 -410v2048h1106v-2048h-1106z" />
    <glyph glyph-name=".notdef" 
d="M563 492l-395 -799h790zM121 -156l381 770l-381 770v-1540zM1006 1384l-381 -770l381 -770v1540zM168 1536l395 -799l395 799h-790zM10 -410v2048h1106v-2048h-1106z" />
    <glyph glyph-name=".null" horiz-adv-x="0" 
 />
    <glyph glyph-name="nonmarkingreturn" horiz-adv-x="681" 
 />
    <glyph glyph-name="space" unicode=" " 
 />
    <glyph glyph-name="exclam" unicode="!" 
d="M672 0h-232l4 225h234zM516 479q0 98 -18 463t-21 442h211q-4 -82 -32 -446t-31 -459h-109z" />
    <glyph glyph-name="quotedbl" unicode="&#x22;" 
d="M385 766h-113l-10 604h201l6 -78zM827 766h-110l-8 604h198l6 -78z" />
    <glyph glyph-name="numbersign" unicode="#" 
d="M625 0l34 356h-251l-35 -356h-121l35 356h-201l14 142h201l29 278h-203l14 142h203l35 352h121l-35 -352h252l35 352h120l-34 -352h204l-16 -142h-203l-28 -278h204l-14 -142h-205l-35 -356h-120zM674 498l28 278h-251l-29 -278h252z" />
    <glyph glyph-name="dollar" unicode="$" 
d="M184 934q0 110 106 186t324 90l39 230h150l-45 -228q109 -4 200 -16l-18 -156q-143 23 -229 29l-70 -375q249 -154 300 -248q26 -47 26 -98q0 -112 -108 -192t-324 -99l-37 -229h-150l43 223q-139 4 -246 19l31 155q158 -27 262 -28l74 397q-252 152 -302 244
q-26 47 -26 96zM793 338q-1 49 -49 96t-140 105l-61 -342q250 14 250 141zM358 950q0 -47 48 -94t141 -104l57 319q-246 -2 -246 -121z" />
    <glyph glyph-name="percent" unicode="%" 
d="M848 510q82 0 131 -70t49 -191q0 -122 -55 -198t-137 -76t-131 69q-49 70 -49 192t54 198q56 76 138 76zM231 -31l-110 68l774 1255l111 -65zM102 1024q0 123 56 199q56 75 137 75q82 0 130 -70t48 -191t-55 -197t-137 -76q-83 0 -131 68t-48 192z" />
    <glyph glyph-name="ampersand" unicode="&#x26;" 
d="M236 301q0 -84 45 -136t127 -52q137 0 254 182l-248 289q-178 -127 -178 -283zM78 266q0 223 272 398q-123 160 -123 289t128 238t444 103l12 -155q-420 20 -420 -189q0 -68 65 -156q66 -88 160 -198q94 -108 102 -119t30 -33q76 180 118 385l144 -18q-66 -262 -179 -465
q132 -151 228 -268l-133 -105q-45 59 -187 230q-152 -227 -366 -228q-141 0 -218 81t-77 210z" />
    <glyph glyph-name="quotesingle" unicode="'" 
d="M614 748h-114l-8 622h215l8 -80z" />
    <glyph glyph-name="parenleft" unicode="(" 
d="M391 530q0 -202 132 -406t431 -441l-114 -105q-322 264 -467 494t-145 454q0 225 147 459t473 500l113 -105q-305 -238 -437 -442t-133 -408z" />
    <glyph glyph-name="parenright" unicode=")" 
d="M735 533q0 203 -131 407t-430 438l113 109q322 -265 467 -495t145 -454t-147 -458t-473 -502l-113 105q305 239 437 443t132 407z" />
    <glyph glyph-name="asterisk" unicode="*" 
d="M750 563l-193 248l-235 -209l-84 72l178 258l-277 162l45 100l301 -90l68 311l111 -6l10 -319l315 30l27 -102l-301 -109l127 -288z" />
    <glyph glyph-name="plus" unicode="+" 
d="M639 530v-383h-150v383h-364v140h364v383h150v-383h362l-2 -140h-360z" />
    <glyph glyph-name="comma" unicode="," 
d="M387 -352q207 244 43 590l229 12q53 -178 3 -339t-189 -290z" />
    <glyph glyph-name="hyphen" unicode="-" 
d="M244 528v142h649l-12 -142h-637z" />
    <glyph glyph-name="period" unicode="." 
d="M674 0h-244l12 238h244z" />
    <glyph glyph-name="slash" unicode="/" 
d="M973 1487l141 -66l-948 -1808l-146 59z" />
    <glyph glyph-name="zero" unicode="0" 
d="M563 113q143 0 216 133t73 379q0 59 -2 88l-557 -291q59 -309 270 -309zM274 645q0 -35 5 -96l557 291q-55 317 -271 317q-143 0 -217 -133t-74 -379zM577 1294q213 0 325 -168t112 -474t-126 -492t-337 -185q-211 0 -324 169t-113 475q0 307 126 491q125 184 337 184z
" />
    <glyph glyph-name="one" unicode="1" 
d="M184 0v141h351v871l-324 -17l-2 121l326 39v145l161 15v-1174h314l-15 -141h-811z" />
    <glyph glyph-name="two" unicode="2" 
d="M985 0h-815l-16 135q340 274 483 435q143 162 143 298t-129 198t-458 64l14 156q737 8 737 -371q0 -182 -137 -348t-455 -422h633v-145z" />
    <glyph glyph-name="three" unicode="3" 
d="M813 360q0 199 -528 258v80l491 426h-577v146h737l10 -144l-475 -413q502 -82 502 -340q-1 -168 -191 -274t-587 -124l-11 154q338 17 484 75t145 156z" />
    <glyph glyph-name="four" unicode="4" 
d="M891 262v-262h-156v262h-567q-10 426 137 1022l178 -12q-174 -731 -184 -864h436v444l156 18v-462h156l-17 -146h-139z" />
    <glyph glyph-name="five" unicode="5" 
d="M965 422q1 -180 -191 -299t-579 -148l-11 154q338 31 482 99q143 69 143 186q0 203 -596 248l41 608h672l-15 -146h-518l-22 -350q594 -61 594 -352z" />
    <glyph glyph-name="six" unicode="6" 
d="M571 113q117 -1 191 75t74 207t-80 201t-205 54t-252 -118v-43q0 -184 77 -280t195 -96zM556 -23q-186 0 -300 129t-115 365q0 547 629 844l68 -144q-244 -102 -368 -232t-157 -298q139 121 300 131t270 -89t109 -283t-126 -304q-124 -119 -310 -119z" />
    <glyph glyph-name="seven" unicode="7" 
d="M997 1270v-142q-323 -550 -522 -1138l-170 18q195 563 529 1104l-7 8h-661l12 150h819z" />
    <glyph glyph-name="eight" unicode="8" 
d="M305 317q-1 -97 67 -155t188 -58t191 54t71 126q0 70 -50 126q-49 56 -100 89q-51 32 -154 89q-213 -104 -213 -271zM328 982q0 -79 68 -140t200 -131q207 104 207 258q-1 88 -63 142t-175 54t-175 -52t-62 -131zM983 317q-1 -145 -123 -243t-308 -99q-186 0 -296 84
q-111 84 -111 222q0 215 283 360q-124 72 -192 149t-68 177q0 131 112 229t288 98t284 -81t106 -214q0 -209 -272 -340q141 -79 219 -155t78 -187z" />
    <glyph glyph-name="nine" unicode="9" 
d="M558 1157q-118 1 -192 -75t-73 -206q0 -130 80 -201t205 -55t251 117v43q0 184 -76 281q-77 96 -195 96zM137 870q0 184 126 302q126 120 309 120t298 -128t115 -365q0 -547 -629 -844l-69 143q247 104 371 234t157 297q-141 -121 -301 -131t-268 89t-109 283z" />
    <glyph glyph-name="colon" unicode=":" 
d="M676 0h-244l8 238h244zM692 674h-241l2 239h243z" />
    <glyph glyph-name="semicolon" unicode=";" 
d="M399 -352q207 244 43 588l232 14q104 -359 -189 -629zM696 674h-243l2 239h243z" />
    <glyph glyph-name="less" unicode="&#x3c;" 
d="M850 1235l92 -119l-612 -508v-20l620 -516l-94 -117l-680 571v142z" />
    <glyph glyph-name="equal" unicode="=" 
d="M160 309v142h807l-2 -142h-805zM160 764v141h807l-2 -141h-805z" />
    <glyph glyph-name="greater" unicode="&#x3e;" 
d="M270 -45l-92 117l623 516v20l-615 506l97 119l669 -563v-142z" />
    <glyph glyph-name="question" unicode="?" 
d="M584 0h-226l4 223h228zM989 1061q0 -108 -148 -232q-61 -51 -125 -103t-114 -120t-57 -139l-117 2q4 82 46 155t97 125t111 98q132 109 131 168q0 60 -49 98q-48 38 -196 71t-394 49l16 156q799 -43 799 -328z" />
    <glyph glyph-name="at" unicode="@" 
d="M725 252q68 0 131 67v517q-150 33 -210 -46t-60 -255q0 -283 139 -283zM659 1399q342 0 342 -477q0 -299 11 -770l-138 -17q-6 53 -8 90q-88 -104 -193 -104t-171 105t-66 280q0 240 114 362t304 113q-18 283 -213 283q-174 0 -286 -193t-111 -549q0 -154 17 -266
q37 -248 191 -359t468 -75v-133q-460 -58 -647 178q-171 216 -171 629q0 412 157 658t400 245z" />
    <glyph glyph-name="A" unicode="A" 
d="M553 1128q-35 -121 -97 -343t-75 -267h358q-119 436 -170 610h-16zM346 389l-102 -389h-170q197 715 370 1274h238q182 -582 371 -1268l-172 -12q-80 299 -107 395h-428z" />
    <glyph glyph-name="B" unicode="B" 
d="M362 131q483 -66 484 221q0 138 -115 186t-369 37v-444zM362 1141v-441q242 -8 344 48t103 188q-1 256 -447 205zM1014 362q0 -158 -109 -252t-291 -116q-182 -20 -419 6v1270q778 90 778 -293q0 -229 -244 -313q285 -56 285 -302z" />
    <glyph glyph-name="C" unicode="C" 
d="M135 607q0 144 42 257q148 400 781 422l11 -164q-401 -4 -538 -137q-69 -69 -95 -149t-25 -207q0 -127 31 -218q69 -202 311 -252q131 -28 328 -20l-14 -145q-473 -32 -661 152q-171 167 -171 461z" />
    <glyph glyph-name="D" unicode="D" 
d="M854 636q0 290 -120 412t-392 89v-1002q262 -39 387 86t125 415zM1026 658q0 -378 -215 -550t-637 -110v1274q456 64 654 -86t198 -528z" />
    <glyph glyph-name="E" unicode="E" 
d="M215 0v1270h770v-146h-600v-417h518v-129h-518v-433h610l-16 -145h-764z" />
    <glyph glyph-name="F" unicode="F" 
d="M924 553h-525v-553h-172v1270h781v-146h-609v-438h525v-133z" />
    <glyph glyph-name="G" unicode="G" 
d="M111 602q0 655 811 684l10 -164q-449 0 -577 -195q-42 -65 -56 -133t-14 -161q0 -267 123 -399t413 -113q-6 412 -6 516h160q0 -541 2 -623q-434 -92 -650 72t-216 516z" />
    <glyph glyph-name="H" unicode="H" 
d="M791 0v578h-455v-578h-174v1270h174v-561h455v561h174v-1270h-174z" />
    <glyph glyph-name="I" unicode="I" 
d="M647 1135v-1000h324l-13 -135h-794v135h313v1000h-313v135h799v-135h-316z" />
    <glyph glyph-name="J" unicode="J" 
d="M258 1270h608v-858q0 -238 -152 -340t-534 -92v151q229 -9 337 13q107 22 143 80t36 188v721h-438v137z" />
    <glyph glyph-name="K" unicode="K" 
d="M356 571v-571h-170v1270h170v-559h140l354 559h182l-403 -621l434 -639l-186 -22l-390 583h-131z" />
    <glyph glyph-name="L" unicode="L" 
d="M231 0v1270h172v-1125h617l-16 -145h-773z" />
    <glyph glyph-name="M" unicode="M" 
d="M989 1270v-1270h-162l9 985h-9l-209 -764h-114l-213 764h-8l8 -985h-156v1270h193q205 -737 233 -844h8l230 844h190z" />
    <glyph glyph-name="N" unicode="N" 
d="M164 0v1270h178l461 -967h8l-6 967h160v-1270h-162l-477 985h-11l7 -985h-158z" />
    <glyph glyph-name="O" unicode="O" 
d="M557 1159q-289 0 -289 -516q0 -260 77 -396t224 -136q289 0 289 516q0 260 -78 396t-223 136zM578 1300q222 0 338 -164t117 -484q1 -318 -131 -500t-353 -183q-221 0 -338 166q-117 167 -117 485t131 499t353 181z" />
    <glyph glyph-name="P" unicode="P" 
d="M858 847q0 167 -123 243t-364 45v-574q243 -17 365 51t122 235zM371 0h-170v1268q403 59 614 -44t211 -343q0 -424 -655 -471v-410z" />
    <glyph glyph-name="Q" unicode="Q" 
d="M557 1159q-289 0 -289 -524t301 -524q289 0 289 524t-301 524zM578 1300q222 0 338 -164t117 -462q1 -297 -99 -473t-281 -219v-2l312 -115l-50 -141l-462 163l28 86q-184 23 -285 187q-102 164 -102 471t131 488t353 181z" />
    <glyph glyph-name="R" unicode="R" 
d="M801 889q0 145 -110 213t-333 35v-549l277 8q166 111 166 293zM358 0h-170v1268q780 115 781 -342q0 -217 -213 -371l303 -549l-182 -26l-259 491l-260 -8v-463z" />
    <glyph glyph-name="S" unicode="S" 
d="M174 940q0 154 181 257t544 83l10 -158q-561 39 -561 -155q0 -101 223 -224q91 -49 185 -102t160 -127t65 -158q0 -166 -200 -278t-607 -90l2 157q324 -27 478 29t153 162q0 107 -224 227q-93 49 -185 101t-158 122q-66 72 -66 154z" />
    <glyph glyph-name="T" unicode="T" 
d="M651 1124v-1124h-172v1124h-399l14 146h948v-146h-391z" />
    <glyph glyph-name="U" unicode="U" 
d="M971 418q-1 -213 -111 -331t-302 -118t-299 115q-105 115 -105 326v860h172v-848q0 -305 243 -305q119 -1 175 65t57 209v879h170v-852z" />
    <glyph glyph-name="V" unicode="V" 
d="M686 -2h-244q-207 674 -364 1266l174 12q145 -580 305 -1124h18q156 532 304 1118h170q-183 -686 -363 -1272z" />
    <glyph glyph-name="W" unicode="W" 
d="M745 0l-184 676l-178 -676h-180q-59 459 -99 1270h168q31 -760 60 -1053h8q23 82 176 676h102q82 -307 183 -676h6q23 201 57 1053h160q-39 -784 -100 -1270h-179z" />
    <glyph glyph-name="X" unicode="X" 
d="M862 -6l-305 524l-293 -518h-182l377 635l-377 629l186 12l305 -524l293 518h185l-377 -635l375 -629z" />
    <glyph glyph-name="Y" unicode="Y" 
d="M651 0h-172v422l-411 844l182 8l319 -688l314 684h176l-408 -848v-422z" />
    <glyph glyph-name="Z" unicode="Z" 
d="M137 0v145l666 977l-658 -2l13 150h827v-146l-661 -977l675 3l-14 -150h-848z" />
    <glyph glyph-name="bracketleft" unicode="[" 
d="M281 -367v1790h669v-135h-510v-1519h518l-14 -136h-663z" />
    <glyph glyph-name="backslash" unicode="\" 
d="M152 1483l958 -1809l-152 -45l-950 1792z" />
    <glyph glyph-name="bracketright" unicode="]" 
d="M690 -229v1517h-510v135h668v-1788h-672l6 136h508z" />
    <glyph glyph-name="asciicircum" unicode="^" 
d="M897 322l-342 475l-328 -475l-114 86l428 602l32 6l449 -606z" />
    <glyph glyph-name="underscore" unicode="_" 
d="M1057 -102v-136h-989v136h989z" />
    <glyph glyph-name="grave" unicode="`" 
d="M807 1204l-49 -74q-262 135 -477 306l122 137q76 -83 198 -193t206 -176z" />
    <glyph glyph-name="a" unicode="a" 
d="M137 236q0 164 166 259t483 76q-10 171 -130 233t-459 75l18 143q295 -8 451 -59t220 -159t64 -310t17 -490l-152 -10q0 4 -6 53t-8 76q-160 -147 -357 -148q-139 0 -223 70t-84 191zM508 106q147 0 285 109q-4 131 -5 238q-487 51 -487 -179q1 -80 57 -124t150 -44z" />
    <glyph glyph-name="b" unicode="b" 
d="M537 119q139 0 225 100q86 101 86 285t-76 284t-196 100t-226 -79v-655q99 -35 187 -35zM479 -25q-152 0 -295 52v1405l166 14v-533q135 113 294 113t263 -131q105 -131 105 -367t-157 -395q-157 -158 -376 -158z" />
    <glyph glyph-name="c" unicode="c" 
d="M164 473q0 230 172 383q172 154 598 162l12 -158q-378 0 -505 -96q-65 -50 -89 -110t-24 -146q0 -209 139 -301t494 -76l-19 -139q-446 -28 -612 111q-166 140 -166 370z" />
    <glyph glyph-name="d" unicode="d" 
d="M490 -25q-164 0 -270 128q-105 128 -105 348q0 263 164 419t403 156q47 0 90 -6v412l166 14v-447q0 -678 14 -995l-155 -8l-11 104q-132 -125 -296 -125zM551 113q121 0 227 86q-6 262 -6 657q-90 29 -166 29q-143 1 -235 -103t-92 -289t75 -283q76 -97 197 -97z" />
    <glyph glyph-name="e" unicode="e" 
d="M579 891q-124 0 -198 -85t-82 -245q150 6 530 17q-2 147 -64 230t-186 83zM135 487q0 227 138 384t338 157t301 -150t73 -403l-686 -16q13 -180 153 -256t498 -84l-16 -142q-458 0 -636 136q-89 67 -126 157t-37 217z" />
    <glyph glyph-name="f" unicode="f" 
d="M166 0v125h274v727h-286l14 127h272q0 213 136 333t464 138l13 -162q-201 -10 -294 -38t-123 -80t-30 -166v-25h381v-127h-381v-727h361l-15 -125h-786z" />
    <glyph glyph-name="g" unicode="g" 
d="M283 542q1 -161 77 -246t195 -85t229 70v573q-109 31 -190 31q-137 0 -224 -91t-87 -252zM494 78q-162 0 -269 115q-106 115 -106 309q0 236 155 380q156 144 379 144q139 0 293 -47q2 -80 2 -746q0 -137 -30 -235t-107 -176q-152 -156 -553 -176l-16 151q271 22 394 67
q64 24 94 68t41 98t13 146q-128 -98 -290 -98z" />
    <glyph glyph-name="h" unicode="h" 
d="M799 625q1 139 -51 199t-164 61q-112 0 -238 -82v-803h-166v1432l166 14v-541q152 121 320 121q299 0 299 -346v-680h-166v625z" />
    <glyph glyph-name="i" unicode="i" 
d="M145 0v127h377v743l-375 17l13 117h528v-877h377l-12 -127h-908zM680 1165h-170l12 279h176z" />
    <glyph glyph-name="j" unicode="j" 
d="M778 100q0 -227 -152 -337t-530 -121l4 157q228 8 334 34t143 76q36 50 35 159v800l-440 19l12 117h594v-904zM766 1165h-170l8 279h172z" />
    <glyph glyph-name="k" unicode="k" 
d="M373 0h-166v1432l166 14v-877l155 4q180 211 332 435l170 -13q-199 -281 -362 -473l385 -510l-176 -24l-355 463l-149 -5v-446z" />
    <glyph glyph-name="l" unicode="l" 
d="M160 0v127h325v1169l-309 15l14 119h463v-1303h328l-14 -127h-807z" />
    <glyph glyph-name="m" unicode="m" 
d="M508 743q0 76 -22 109t-84 33t-138 -76q8 -365 8 -809h-155q0 651 -13 997l146 11l8 -95q102 113 217 113t154 -106q102 106 219 106q176 0 176 -225v-801h-158v741q0 78 -21 111q-23 33 -83 33t-125 -60v-825h-129v743z" />
    <glyph glyph-name="n" unicode="n" 
d="M799 625q1 139 -51 199t-166 61q-114 0 -244 -88q8 -365 8 -797h-166q0 674 -14 997l153 11l11 -115q160 133 336 133q299 0 299 -346v-680h-166v625z" />
    <glyph glyph-name="o" unicode="o" 
d="M565 109q129 0 206 99q77 98 77 286t-79 294t-207 106t-205 -99q-77 -100 -77 -287t78 -293t207 -106zM1014 517q0 -241 -137 -393t-331 -153t-314 137t-120 376t139 393q139 153 333 153t312 -136t118 -377z" />
    <glyph glyph-name="p" unicode="p" 
d="M188 -4q0 745 -12 1001l152 11l10 -105q137 123 300 123t268 -131t106 -348q0 -262 -159 -417t-390 -155q-59 0 -109 9v-322l-166 -14v348zM522 119q141 0 234 102q92 103 92 285t-76 282t-197 100t-231 -83q8 -322 10 -655q88 -31 168 -31z" />
    <glyph glyph-name="q" unicode="q" 
d="M547 113q119 0 229 86v653q-90 33 -172 33q-143 1 -234 -103t-91 -289t74 -283q75 -97 194 -97zM486 -27q-160 0 -266 129q-105 129 -105 349q0 263 163 419t388 156q143 0 276 -51v-1311l-166 -14v440q-130 -117 -290 -117z" />
    <glyph glyph-name="r" unicode="r" 
d="M137 0v127h266q-8 606 -12 743l-254 15l13 119h389q8 -86 12 -173q168 174 459 209l8 -176q-291 -23 -461 -133q0 -72 8 -604h340l-14 -127h-754z" />
    <glyph glyph-name="s" unicode="s" 
d="M379 750q0 -77 200 -163q83 -36 165 -76t142 -98q58 -58 58 -130q0 -141 -176 -227t-565 -64l6 147q563 -45 563 129q0 87 -198 167q-84 34 -166 72t-140 94q-57 56 -57 126q0 137 165 225t519 60l6 -148q-522 47 -522 -114z" />
    <glyph glyph-name="t" unicode="t" 
d="M362 874h-206l16 130h190v278l166 14v-292h410v-130h-410v-526q0 -129 89 -175t344 -50l-19 -139q-322 -4 -450 72t-130 266v552z" />
    <glyph glyph-name="u" unicode="u" 
d="M168 324v673l166 13v-631q0 -141 50 -201t164 -61q114 0 240 92q-8 360 -8 795h166q0 -674 15 -998l-154 -10l-10 115q-164 -135 -334 -136q-295 0 -295 349z" />
    <glyph glyph-name="v" unicode="v" 
d="M575 156q150 381 299 848h168q-152 -461 -374 -1012h-209q-201 500 -369 1005l166 11q152 -465 303 -852h16z" />
    <glyph glyph-name="w" unicode="w" 
d="M618 729l181 -524h8q29 483 45 799h156q-33 -539 -101 -1004h-153l-193 561l-190 -561h-150q-70 444 -102 1004h164q23 -434 49 -795h8l176 520h102z" />
    <glyph glyph-name="x" unicode="x" 
d="M850 -4l-295 410l-291 -406h-176l369 500l-367 497l182 11l299 -412l289 408h178l-366 -500l362 -498z" />
    <glyph glyph-name="y" unicode="y" 
d="M604 205l273 799h159q-154 -455 -321 -879q-102 -271 -211 -365t-361 -125l-14 154q193 29 263 72t122 166l-18 4q-143 311 -410 966l170 11q209 -532 328 -803h20z" />
    <glyph glyph-name="z" unicode="z" 
d="M150 0v141l636 719l-630 -4l12 148h809v-140l-637 -721l655 4l-12 -147h-833z" />
    <glyph glyph-name="braceleft" unicode="{" 
d="M309 -33q0 69 47 135t95 119q47 53 47 92q0 61 -80 103t-242 53l4 121q330 29 330 131q0 37 -51 89t-103 116t-53 129q0 229 637 432l53 -137q-281 -78 -405 -144t-125 -135q0 -45 49 -101t98 -114t49 -113t-58 -111t-181 -89q121 -31 178 -85t57 -120t-90 -171t-90 -163
q0 -80 119 -146t395 -151l-57 -135q-352 113 -488 198q-135 85 -135 197z" />
    <glyph glyph-name="bar" unicode="|" 
d="M643 -373h-154v1815l154 12v-1827z" />
    <glyph glyph-name="braceright" unicode="}" 
d="M666 -8q0 51 -98 156q-97 106 -97 166t58 116t180 90q-121 29 -179 83q-57 53 -57 113t46 120t91 115q45 56 45 106q1 81 -117 147t-397 150l58 135q352 -113 487 -198t135 -197q0 -68 -48 -135t-95 -119t-47 -92q0 -62 81 -104t242 -52l-6 -119q-330 -29 -330 -131
q0 -37 52 -89q52 -51 103 -115q52 -64 52 -132q0 -231 -635 -432l-53 139q276 78 403 144q126 66 126 135z" />
    <glyph glyph-name="asciitilde" unicode="~" 
d="M764 401q-54 0 -118 46q-64 45 -109 101q-120 147 -183 148q-43 0 -83 -70t-87 -208l-110 43q121 387 293 387q55 0 117 -46t108 -102q121 -148 178 -147q43 0 83 70t89 208l111 -43q-63 -197 -130 -292t-159 -95z" />
    <glyph glyph-name="uni00A0" unicode="&#xa0;" 
 />
    <glyph glyph-name="exclamdown" unicode="&#xa1;" 
d="M610 793q0 -98 20 -463t21 -445h-213q4 82 33 447t31 461h108zM455 1270h231l-2 -226h-233z" />
    <glyph glyph-name="cent" unicode="&#xa2;" 
d="M156 535q0 362 469 440l34 295h146l-39 -281q111 8 207 2l-19 -153q-104 8 -217 4l-73 -602q117 -23 264 -29l-19 -141q-143 6 -258 24l-28 -268h-146l39 299q-360 104 -360 410zM311 555q0 -205 238 -285l72 561q-170 -27 -240 -99t-70 -177z" />
    <glyph glyph-name="sterling" unicode="&#xa3;" 
d="M973 0h-848v137l149 2l41 424h-178l13 129h180q18 166 52 268q75 225 293 293q116 37 300 50l10 -168q-156 -9 -240 -25t-139 -70q-56 -54 -76 -128q-20 -75 -36 -220h364l-12 -129h-367l-47 -424l541 4v-143z" />
    <glyph glyph-name="yen" unicode="&#xa5;" 
d="M129 563v123h258l-309 580l178 8l313 -625l303 621h168l-305 -584h256v-123h-321l-29 -55l2 -137h348l-2 -123h-346l2 -248h-166l2 248h-354l2 123h352l2 135l-30 57h-324z" />
    <glyph glyph-name="section" unicode="&#xa7;" 
d="M911 94q0 -133 -178 -231t-547 -86l9 143q201 -8 329 17t173 61q44 36 44 79q0 76 -217 155q-90 34 -179 72t-152 95t-63 130t62 139q64 66 168 110q-145 82 -145 189q0 135 175 233t532 86l8 -145q-413 21 -519 -97q-26 -28 -26 -66q-1 -38 63 -77t154 -72t179 -69
t153 -94q64 -57 63 -127q0 -152 -233 -254q147 -85 147 -191zM279 563q0 -60 86 -103q66 -35 163 -73q97 -37 131 -51q84 31 137 75q52 44 52 81q0 67 -85 111q-61 33 -160 72q-100 38 -134 52q-190 -72 -190 -164z" />
    <glyph glyph-name="dieresis" unicode="&#xa8;" 
d="M424 1165h-168l2 279h170zM874 1165h-167l2 279h170z" />
    <glyph glyph-name="copyright" unicode="&#xa9;" 
d="M481 634q-1 -122 51 -180t189 -51l-12 -110q-348 -25 -349 340q0 150 82 246t265 108l8 -119q-141 -4 -187 -58t-47 -176zM188 631q0 -244 109 -384q109 -141 276 -141t267 140t100 387q0 246 -100 388t-266 142t-276 -144t-110 -388zM88 623q0 283 142 457t348 175
q206 -1 334 -165q126 -164 126 -451t-132 -456t-341 -169t-343 163t-134 446z" />
    <glyph glyph-name="ordfeminine" unicode="&#xaa;" 
d="M223 352h678v-112h-678v112zM495 502q-129 0 -197 53t-69 143q0 125 128 198t372 60q-10 113 -101 153t-341 48l12 125q332 -10 451 -91t118 -294q0 -111 11 -371l-125 -8l-4 33q-6 33 -9 51q-117 -100 -246 -100zM518 610q106 0 217 74q-4 94 -4 174q-362 35 -362 -133
q-1 -115 149 -115z" />
    <glyph glyph-name="guillemotleft" unicode="&#xab;" 
d="M926 -35l-348 455l8 166l346 450l121 -100l-353 -430l349 -445zM436 -35l-348 455l8 166l346 450l121 -100l-348 -428l344 -447z" />
    <glyph glyph-name="registered" unicode="&#xae;" 
d="M496 659h-97v461q181 25 273 -14t92 -116t-94 -140l121 -180l-103 -15l-102 170l-90 -2v-164zM961 895q0 189 -109 295t-286 106q-178 0 -288 -112t-110 -299q0 -188 108 -295q109 -106 284 -106t288 110q113 111 113 301zM1053 902q1 -220 -141 -361t-358 -141t-347 128
t-131 350t136 360t352 142t352 -127t137 -351z" />
    <glyph glyph-name="macron" unicode="&#xaf;" 
d="M905 1380v-143h-684v143h684z" />
    <glyph glyph-name="degree" unicode="&#xb0;" 
d="M560 766q98 0 160 70q64 70 66 178t-60 176t-160 68t-160 -68q-64 -68 -66 -175t60 -178t160 -71zM574 1384q152 0 250 -99t98 -266t-109 -273t-261 -105q-152 0 -249 99q-98 100 -98 266t108 272q109 106 261 106z" />
    <glyph glyph-name="plusminus" unicode="&#xb1;" 
d="M143 127v139h346v342h-350v142h350v366h150v-366h348l-2 -142h-346v-342h344l-2 -139h-838z" />
    <glyph glyph-name="two.sup" unicode="&#xb2;" 
d="M872 666h-604l-14 108q248 166 352 261t104 177t-94 120t-331 42l10 119q551 2 551 -242q0 -109 -98 -215t-312 -254h436v-116z" />
    <glyph glyph-name="three.sup" unicode="&#xb3;" 
d="M291 1475h551l8 -109l-338 -250q358 -55 358 -217q0 -109 -140 -179t-441 -77l-10 123q461 14 460 129q0 109 -381 145v68l332 248v6l-399 -4v117z" />
    <glyph glyph-name="acute" unicode="&#xb4;" 
d="M332 1217q88 61 204 169t191 195l133 -129q-84 -76 -225 -165t-256 -144z" />
    <glyph glyph-name="mu" unicode="&#xb5;" 
d="M334 358q0 -129 50 -185t164 -56t240 90q-8 360 -8 797h166q0 -674 15 -998l-152 -10l-10 115q-143 -135 -299 -136q-115 0 -178 62l8 -373l-162 -16v1349l166 13v-652z" />
    <glyph glyph-name="paragraph" unicode="&#xb6;" 
d="M821 207q-86 0 -178 10v-436l-141 -19v486q-193 57 -298 178t-106 289q0 260 228 419t637 156v-1458l-142 -16v391zM252 745q0 -121 71 -211t201 -139v705q-136 -46 -204 -140t-68 -215zM821 342v791q-82 6 -180 -7v-764q78 -16 180 -20z" />
    <glyph glyph-name="periodcentered" unicode="&#xb7;" 
d="M684 508h-244l6 235h244z" />
    <glyph glyph-name="cedilla" unicode="&#xb8;" 
d="M809 -225q0 -78 -95 -134t-280 -79l-12 131q240 35 240 98q0 69 -193 184l43 86q297 -143 297 -286z" />
    <glyph glyph-name="one.sup" unicode="&#xb9;" 
d="M276 666v112h256v479l-241 -14l-4 98l245 33v123l132 10v-729h233l-10 -112h-611z" />
    <glyph glyph-name="ordmasculine" unicode="&#xba;" 
d="M905 240h-682v112h682v-112zM338 898q0 -134 60 -208t166 -74q105 0 165 70q59 70 59 205t-60 208t-166 73t-166 -70q-58 -70 -58 -204zM199 882q-1 178 111 290t269 112t253 -101t96 -279t-111 -290t-269 -112t-253 102q-96 102 -96 278z" />
    <glyph glyph-name="guillemotright" unicode="&#xbb;" 
d="M197 -35l-121 101l352 432l-348 442l123 96l348 -454l-8 -166zM684 -35l-121 101l352 430l-348 444l123 96l350 -454l-10 -166z" />
    <glyph glyph-name="onequarter" unicode="&#xbc;" 
d="M911 -266l-106 2l2 -166h-127l2 166l-416 -2q-4 285 101 659l143 -10q-29 -96 -78 -295t-51 -242l303 -2l-4 271l127 10l-2 -281l117 2zM125 567v113h876v-113h-876zM276 870v113h256v479l-241 -14l-4 98l245 33v123l132 10v-729h233l-10 -113h-611z" />
    <glyph glyph-name="onehalf" unicode="&#xbd;" 
d="M872 -430h-604l-14 108q248 166 352 262t104 176q0 81 -94 120t-331 43l10 118q551 2 551 -241q0 -109 -98 -215t-312 -254h436v-117zM125 567v113h876v-113h-876zM276 870v113h256v479l-241 -14l-4 98l245 33v123l132 10v-729h233l-10 -113h-611z" />
    <glyph glyph-name="threequarters" unicode="&#xbe;" 
d="M911 -266l-106 2l2 -166h-127l2 166l-416 -2q-4 285 101 659l143 -10q-29 -96 -78 -295t-51 -242l303 -2l-4 271l127 10l-2 -281l117 2zM125 567v113h876v-113h-876zM291 1679h551l8 -108l-338 -250q358 -55 358 -217q0 -108 -140 -178t-441 -78l-10 123q461 14 460 129
q0 109 -381 145v68l332 248v6l-399 -4v116z" />
    <glyph glyph-name="questiondown" unicode="&#xbf;" 
d="M137 209q0 111 150 231q63 52 127 104q154 127 170 259l116 -2q-6 -99 -68 -189t-132 -143q-185 -140 -187 -221q1 -53 51 -91t196 -71t392 -49l-16 -156q-799 43 -799 328zM545 1270h223l-6 -223h-225z" />
    <glyph glyph-name="Agrave" unicode="&#xc0;" 
d="M553 1128q-35 -121 -97 -343t-75 -267h358q-119 436 -170 610h-16zM346 389l-102 -389h-170q197 715 370 1274h238q182 -582 371 -1268l-172 -12q-80 299 -107 395h-428zM766 1470l-49 -73q-262 135 -477 305l122 137q76 -83 198 -193t206 -176z" />
    <glyph glyph-name="Aacute" unicode="&#xc1;" 
d="M553 1128q-35 -121 -97 -343t-75 -267h358q-119 436 -170 610h-16zM346 389l-102 -389h-170q197 715 370 1274h238q182 -582 371 -1268l-172 -12q-80 299 -107 395h-428zM346 1483q88 61 205 169t190 195l133 -129q-84 -76 -225 -165t-256 -144z" />
    <glyph glyph-name="Acircumflex" unicode="&#xc2;" 
d="M553 1128q-35 -121 -97 -343t-75 -267h358q-119 436 -170 610h-16zM346 389l-102 -389h-170q197 715 370 1274h238q182 -582 371 -1268l-172 -12q-80 299 -107 395h-428zM821 1413l-272 234l-270 -232l-82 80l360 313h8l361 -295z" />
    <glyph glyph-name="Atilde" unicode="&#xc3;" 
d="M553 1128q-35 -121 -97 -343t-75 -267h358q-119 436 -170 610h-16zM346 389l-102 -389h-170q197 715 370 1274h238q182 -582 371 -1268l-172 -12q-80 299 -107 395h-428zM717 1427q-55 -1 -113 51t-105 103q-48 51 -83 51q-72 0 -160 -188l-92 41q117 285 270 284
q80 0 168 -104q87 -104 133 -102q70 0 158 190l94 -41q-120 -285 -270 -285z" />
    <glyph glyph-name="Adieresis" unicode="&#xc4;" 
d="M553 1128q-35 -121 -97 -343t-75 -267h358q-119 436 -170 610h-16zM346 389l-102 -389h-170q197 715 370 1274h238q182 -582 371 -1268l-172 -12q-80 299 -107 395h-428zM422 1432h-168l2 278h170zM872 1432h-167l2 278h170z" />
    <glyph glyph-name="Aring" unicode="&#xc5;" 
d="M553 1128q-35 -121 -97 -343t-75 -267h358q-119 436 -170 610h-16zM346 389l-102 -389h-170q197 715 370 1274h238q182 -582 371 -1268l-172 -12q-80 299 -107 395h-428zM559 1389q-119 0 -195 61q-76 60 -75 154q-1 94 73 156t193 63q119 -1 196 -63t77 -154t-75 -155
q-75 -62 -194 -62z" />
    <glyph glyph-name="AE" unicode="&#xc6;" 
d="M537 0v373h-248q-78 -250 -115 -373h-166q123 393 416 1270h616v-146h-354v-417h299v-129h-299v-433h363l-13 -145h-499zM537 500v624h-13q-148 -468 -196 -624h209z" />
    <glyph glyph-name="Ccedilla" unicode="&#xc7;" 
d="M801 -229q0 -79 -95 -135t-280 -78l-12 131q240 35 239 98q0 70 -192 184l33 68q-358 123 -359 575q0 276 184 466t639 206l11 -164q-401 -4 -538 -137q-69 -69 -95 -149t-25 -207q0 -127 31 -218q69 -202 311 -252q131 -28 328 -20l-14 -145q-223 -14 -377 18
q211 -122 211 -241z" />
    <glyph glyph-name="Egrave" unicode="&#xc8;" 
d="M215 0v1270h770v-146h-600v-417h518v-129h-518v-433h610l-16 -145h-764zM809 1470l-49 -73q-262 135 -477 305l123 137q76 -83 198 -193t205 -176z" />
    <glyph glyph-name="Eacute" unicode="&#xc9;" 
d="M215 0v1270h770v-146h-600v-417h518v-129h-518v-433h610l-16 -145h-764zM387 1483q88 61 204 169t191 195l133 -129q-84 -76 -225 -165t-256 -144z" />
    <glyph glyph-name="Ecircumflex" unicode="&#xca;" 
d="M215 0v1270h770v-146h-600v-417h518v-129h-518v-433h610l-16 -145h-764zM862 1413l-272 234l-271 -232l-81 80l360 313h8l361 -295z" />
    <glyph glyph-name="Edieresis" unicode="&#xcb;" 
d="M215 0v1270h770v-146h-600v-417h518v-129h-518v-433h610l-16 -145h-764zM463 1432h-168l2 278h170zM913 1432h-168l3 278h170z" />
    <glyph glyph-name="Igrave" unicode="&#xcc;" 
d="M647 1135v-1000h324l-13 -135h-794v135h313v1000h-313v135h799v-135h-316zM774 1470l-49 -73q-262 135 -477 305l123 137q75 -83 197 -193t206 -176z" />
    <glyph glyph-name="Iacute" unicode="&#xcd;" 
d="M647 1135v-1000h324l-13 -135h-794v135h313v1000h-313v135h799v-135h-316zM352 1483q88 61 204 169t192 195l133 -129q-83 -76 -225 -165t-257 -144z" />
    <glyph glyph-name="Icircumflex" unicode="&#xce;" 
d="M647 1135v-1000h324l-13 -135h-794v135h313v1000h-313v135h799v-135h-316zM827 1413l-272 234l-270 -232l-82 80l360 313h8l361 -295z" />
    <glyph glyph-name="Idieresis" unicode="&#xcf;" 
d="M647 1135v-1000h324l-13 -135h-794v135h313v1000h-313v135h799v-135h-316zM428 1432h-168l2 278h170zM879 1432h-168l2 278h170z" />
    <glyph glyph-name="Eth" unicode="&#xd0;" 
d="M854 636q0 290 -120 412t-392 89v-432h268l-6 -121h-262v-449q262 -39 387 86t125 415zM1026 658q0 -378 -215 -550t-637 -110v586h-143v121h143v567q456 64 654 -86t198 -528z" />
    <glyph glyph-name="Ntilde" unicode="&#xd1;" 
d="M164 0v1270h178l461 -967h8l-6 967h160v-1270h-162l-477 985h-11l7 -985h-158zM719 1427q-55 -1 -113 51t-105 103q-48 51 -83 51q-72 0 -160 -188l-92 41q117 285 270 284q80 0 168 -104q87 -104 133 -102q70 0 158 190l94 -41q-120 -285 -270 -285z" />
    <glyph glyph-name="Ograve" unicode="&#xd2;" 
d="M557 1159q-289 0 -289 -516q0 -260 77 -396t224 -136q289 0 289 516q0 260 -78 396t-223 136zM578 1300q222 0 338 -164t117 -484q1 -318 -131 -500t-353 -183q-221 0 -338 166q-117 167 -117 485t131 499t353 181zM776 1485l-49 -74q-262 135 -477 305l123 137
q75 -82 197 -192t206 -176z" />
    <glyph glyph-name="Oacute" unicode="&#xd3;" 
d="M557 1159q-289 0 -289 -516q0 -260 77 -396t224 -136q289 0 289 516q0 260 -78 396t-223 136zM578 1300q222 0 338 -164t117 -484q1 -318 -131 -500t-353 -183q-221 0 -338 166q-117 167 -117 485t131 499t353 181zM354 1497q88 61 204 169t192 196l133 -129
q-83 -76 -225 -165t-257 -145z" />
    <glyph glyph-name="Ocircumflex" unicode="&#xd4;" 
d="M557 1159q-289 0 -289 -516q0 -260 77 -396t224 -136q289 0 289 516q0 260 -78 396t-223 136zM578 1300q222 0 338 -164t117 -484q1 -318 -131 -500t-353 -183q-221 0 -338 166q-117 167 -117 485t131 499t353 181zM829 1427l-272 234l-270 -231l-82 79l360 314h8
l361 -295z" />
    <glyph glyph-name="Otilde" unicode="&#xd5;" 
d="M557 1159q-289 0 -289 -516q0 -260 77 -396t224 -136q289 0 289 516q0 260 -78 396t-223 136zM578 1300q222 0 338 -164t117 -484q1 -318 -131 -500t-353 -183q-221 0 -338 166q-117 167 -117 485t131 499t353 181zM727 1442q-55 0 -113 51t-105 102q-48 51 -83 52
q-72 0 -160 -189l-92 41q117 285 270 285q44 0 90 -33t78 -71q85 -103 133 -103q70 0 158 190l94 -41q-120 -284 -270 -284z" />
    <glyph glyph-name="Odieresis" unicode="&#xd6;" 
d="M557 1159q-289 0 -289 -516q0 -260 77 -396t224 -136q289 0 289 516q0 260 -78 396t-223 136zM578 1300q222 0 338 -164t117 -484q1 -318 -131 -500t-353 -183q-221 0 -338 166q-117 167 -117 485t131 499t353 181zM430 1446h-168l2 278h170zM881 1446h-168l2 278h170z
" />
    <glyph glyph-name="multiply" unicode="&#xd7;" 
d="M864 188l-303 308l-295 -299l-100 100l295 301l-303 307l106 103l301 -306l295 302l101 -103l-297 -301l305 -309z" />
    <glyph glyph-name="Oslash" unicode="&#xd8;" 
d="M541 -31q-135 0 -236 70l-61 -113l-107 58l80 143q-123 167 -123 489t131 503t361 181q139 0 239 -71l60 114l108 -57l-80 -145q119 -167 120 -487t-131 -502t-361 -183zM569 111q291 0 291 516q0 217 -53 348l-428 -778q71 -86 190 -86zM266 643q0 -213 53 -348l429 778
q-74 86 -191 86q-291 0 -291 -516z" />
    <glyph glyph-name="Ugrave" unicode="&#xd9;" 
d="M971 418q-1 -213 -111 -331t-302 -118t-299 115q-105 115 -105 326v860h172v-848q0 -305 243 -305q119 -1 175 65t57 209v879h170v-852zM770 1470l-49 -73q-262 135 -477 305l123 137q75 -83 197 -193t206 -176z" />
    <glyph glyph-name="Uacute" unicode="&#xda;" 
d="M971 418q-1 -213 -111 -331t-302 -118t-299 115q-105 115 -105 326v860h172v-848q0 -305 243 -305q119 -1 175 65t57 209v879h170v-852zM348 1483q88 61 204 169t191 195l134 -129q-83 -76 -225 -165t-257 -144z" />
    <glyph glyph-name="Ucircumflex" unicode="&#xdb;" 
d="M971 418q-1 -213 -111 -331t-302 -118t-299 115q-105 115 -105 326v860h172v-848q0 -305 243 -305q119 -1 175 65t57 209v879h170v-852zM823 1413l-272 234l-270 -232l-82 80l360 313h8l361 -295z" />
    <glyph glyph-name="Udieresis" unicode="&#xdc;" 
d="M971 418q-1 -213 -111 -331t-302 -118t-299 115q-105 115 -105 326v860h172v-848q0 -305 243 -305q119 -1 175 65t57 209v879h170v-852zM424 1432h-168l2 278h170zM874 1432h-167l2 278h170z" />
    <glyph glyph-name="Yacute" unicode="&#xdd;" 
d="M651 0h-172v422l-411 844l182 8l319 -688l314 684h176l-408 -848v-422zM354 1487q88 61 204 169t192 195l133 -129q-83 -76 -225 -164t-257 -145z" />
    <glyph glyph-name="Thorn" unicode="&#xde;" 
d="M864 642q0 161 -126 235t-365 45v-560q243 -14 367 52t124 228zM373 0h-170v1270h170v-201q319 25 489 -79t170 -317q0 -212 -175 -326t-484 -134v-213z" />
    <glyph glyph-name="germandbls" unicode="&#xdf;" 
d="M694 722q0 -42 56 -92t126 -91q68 -41 124 -111t56 -139t-27 -123q-106 -203 -494 -178l6 149q178 -20 265 19t87 114q0 48 -56 100t-124 91t-124 105q-113 132 -4 279q52 73 104 145t52 144q0 70 -46 120t-134 51q-227 0 -227 -324v-981h-164v944q0 224 113 364t315 140
q152 0 230 -84t79 -199q0 -77 -34 -149q-35 -72 -73 -115t-72 -90t-34 -89z" />
    <glyph glyph-name="agrave" unicode="&#xe0;" 
d="M137 236q0 164 166 259t483 76q-10 171 -130 233t-459 75l18 143q295 -8 451 -59t220 -159t64 -310t17 -490l-152 -10q0 4 -6 53t-8 76q-160 -147 -357 -148q-139 0 -223 70t-84 191zM508 106q147 0 285 109q-4 131 -5 238q-487 51 -487 -179q1 -80 57 -124t150 -44z
M766 1212l-49 -73q-262 135 -477 305l122 137q76 -83 198 -193t206 -176z" />
    <glyph glyph-name="aacute" unicode="&#xe1;" 
d="M137 236q0 164 166 259t483 76q-10 171 -130 233t-459 75l18 143q295 -8 451 -59t220 -159t64 -310t17 -490l-152 -10q0 4 -6 53t-8 76q-160 -147 -357 -148q-139 0 -223 70t-84 191zM508 106q147 0 285 109q-4 131 -5 238q-487 51 -487 -179q1 -80 57 -124t150 -44z
M344 1225q88 61 204 169t191 195l133 -129q-84 -76 -225 -165t-256 -144z" />
    <glyph glyph-name="acircumflex" unicode="&#xe2;" 
d="M137 236q0 164 166 259t483 76q-10 171 -130 233t-459 75l18 143q295 -8 451 -59t220 -159t64 -310t17 -490l-152 -10q0 4 -6 53t-8 76q-160 -147 -357 -148q-139 0 -223 70t-84 191zM508 106q147 0 285 109q-4 131 -5 238q-487 51 -487 -179q1 -80 57 -124t150 -44z
M821 1155l-272 234l-270 -232l-82 80l360 313h8l361 -295z" />
    <glyph glyph-name="atilde" unicode="&#xe3;" 
d="M137 236q0 164 166 259t483 76q-10 171 -130 233t-459 75l18 143q295 -8 451 -59t220 -159t64 -310t17 -490l-152 -10q0 4 -6 53t-8 76q-160 -147 -357 -148q-139 0 -223 70t-84 191zM508 106q147 0 285 109q-4 131 -5 238q-487 51 -487 -179q1 -80 57 -124t150 -44z
M717 1169q-55 -1 -113 51t-105 103q-48 51 -83 51q-72 0 -160 -188l-92 41q117 285 270 284q80 0 168 -104q87 -104 133 -102q70 0 158 190l94 -41q-120 -285 -270 -285z" />
    <glyph glyph-name="adieresis" unicode="&#xe4;" 
d="M137 236q0 164 166 259t483 76q-10 171 -130 233t-459 75l18 143q295 -8 451 -59t220 -159t64 -310t17 -490l-152 -10q0 4 -6 53t-8 76q-160 -147 -357 -148q-139 0 -223 70t-84 191zM508 106q147 0 285 109q-4 131 -5 238q-487 51 -487 -179q1 -80 57 -124t150 -44z
M420 1174h-168l2 278h170zM870 1174h-168l3 278h169z" />
    <glyph glyph-name="aring" unicode="&#xe5;" 
d="M137 236q0 164 166 259t483 76q-10 171 -130 233t-459 75l18 143q295 -8 451 -59t220 -159t64 -310t17 -490l-152 -10q0 4 -6 53t-8 76q-160 -147 -357 -148q-139 0 -223 70t-84 191zM508 106q147 0 285 109q-4 131 -5 238q-487 51 -487 -179q1 -80 57 -124t150 -44z
M555 1565q119 -1 196 -63t77 -154t-75 -155t-194 -63t-195 62t-75 154q0 93 73 156q74 63 193 63z" />
    <glyph glyph-name="ae" unicode="&#xe6;" 
d="M70 238q0 317 409 325q-4 178 -73 236q-70 57 -293 71l12 142q189 -10 285 -48t137 -124q80 176 246 176q141 0 207 -144t51 -403l-428 -10q3 -123 33 -190t118 -103t258 -39l-14 -139q-356 2 -467 153q-100 -156 -264 -155q-96 0 -157 67q-60 68 -60 185zM346 119
q94 0 164 106q-31 90 -31 232q-254 0 -254 -181q0 -78 33 -118t88 -39zM767 879q-136 0 -144 -316l276 4q4 312 -132 312z" />
    <glyph glyph-name="ccedilla" unicode="&#xe7;" 
d="M823 -240q0 -78 -95 -134t-279 -79l-13 131q240 35 240 99q0 70 -193 184l29 59q-348 94 -348 465q0 217 172 371t598 162l12 -158q-378 0 -505 -96q-65 -50 -89 -110t-24 -146q0 -209 139 -301t494 -76l-19 -139q-195 -12 -326 8q207 -123 207 -240z" />
    <glyph glyph-name="egrave" unicode="&#xe8;" 
d="M579 891q-124 0 -198 -85t-82 -245q150 6 530 17q-2 147 -64 230t-186 83zM135 487q0 227 138 384t338 157t301 -150t73 -403l-686 -16q13 -180 153 -256t498 -84l-16 -142q-458 0 -636 136q-89 67 -126 157t-37 217zM791 1219l-50 -74q-262 135 -477 305l123 137
q76 -82 198 -192t206 -176z" />
    <glyph glyph-name="eacute" unicode="&#xe9;" 
d="M579 891q-124 0 -198 -85t-82 -245q150 6 530 17q-2 147 -64 230t-186 83zM135 487q0 227 138 384t338 157t301 -150t73 -403l-686 -16q13 -180 153 -256t498 -84l-16 -142q-458 0 -636 136q-89 67 -126 157t-37 217zM369 1231q89 61 205 169t190 195l133 -129
q-84 -76 -225 -164t-256 -145z" />
    <glyph glyph-name="ecircumflex" unicode="&#xea;" 
d="M579 891q-124 0 -198 -85t-82 -245q150 6 530 17q-2 147 -64 230t-186 83zM135 487q0 227 138 384t338 157t301 -150t73 -403l-686 -16q13 -180 153 -256t498 -84l-16 -142q-458 0 -636 136q-89 67 -126 157t-37 217zM844 1161l-273 234l-270 -232l-82 80l361 313h8
l360 -294z" />
    <glyph glyph-name="edieresis" unicode="&#xeb;" 
d="M579 891q-124 0 -198 -85t-82 -245q150 6 530 17q-2 147 -64 230t-186 83zM135 487q0 227 138 384t338 157t301 -150t73 -403l-686 -16q13 -180 153 -256t498 -84l-16 -142q-458 0 -636 136q-89 67 -126 157t-37 217zM444 1180h-168l3 278h170zM895 1180h-168l2 278h170z
" />
    <glyph glyph-name="igrave" unicode="&#xec;" 
d="M145 0v127h377v743l-375 17l13 117h528v-877h377l-12 -127h-908zM813 1204l-49 -74q-262 135 -477 306l123 137q76 -83 198 -193t205 -176z" />
    <glyph glyph-name="iacute" unicode="&#xed;" 
d="M145 0v127h377v743l-375 17l13 117h528v-877h377l-12 -127h-908zM391 1217q88 61 205 169t190 195l134 -129q-84 -76 -226 -165t-256 -144z" />
    <glyph glyph-name="icircumflex" unicode="&#xee;" 
d="M145 0v127h377v743l-375 17l13 117h528v-877h377l-12 -127h-908zM866 1147l-272 233l-270 -231l-82 80l360 313h8l361 -295z" />
    <glyph glyph-name="idieresis" unicode="&#xef;" 
d="M145 0v127h377v743l-375 17l13 117h528v-877h377l-12 -127h-908zM467 1165h-168l2 279h170zM918 1165h-168l2 279h170z" />
    <glyph glyph-name="eth" unicode="&#xf0;" 
d="M279 465q1 -162 79 -258t207 -96t205 101t76 266t-45 292q-246 84 -384 -6t-138 -299zM548 -27q-190 0 -311 128q-122 128 -122 343q0 170 89 292t224 172t291 32q-70 106 -162 193l-268 -136l-41 97l225 114q-82 68 -197 138l103 104q123 -78 235 -170l236 119l39 -99
l-191 -96q307 -301 308 -690q0 -254 -134 -398t-324 -143z" />
    <glyph glyph-name="ntilde" unicode="&#xf1;" 
d="M799 625q1 139 -51 199t-166 61q-114 0 -244 -88q8 -365 8 -797h-166q0 674 -14 997l153 11l11 -115q160 133 336 133q299 0 299 -346v-680h-166v625zM721 1186q-55 0 -113 51t-105 102q-48 51 -83 52q-72 0 -160 -189l-92 41q117 285 270 285q79 0 167 -104
q87 -104 134 -103q70 0 158 190l94 -41q-120 -284 -270 -284z" />
    <glyph glyph-name="ograve" unicode="&#xf2;" 
d="M565 109q129 0 206 99q77 98 77 286t-79 294t-207 106t-205 -99q-77 -100 -77 -287t78 -293t207 -106zM1014 517q0 -241 -137 -393t-331 -153t-314 137t-120 376t139 393q139 153 333 153t312 -136t118 -377zM770 1214l-49 -73q-262 135 -477 305l123 137
q75 -83 197 -193t206 -176z" />
    <glyph glyph-name="oacute" unicode="&#xf3;" 
d="M565 109q129 0 206 99q77 98 77 286t-79 294t-207 106t-205 -99q-77 -100 -77 -287t78 -293t207 -106zM1014 517q0 -241 -137 -393t-331 -153t-314 137t-120 376t139 393q139 153 333 153t312 -136t118 -377zM348 1227q88 61 204 169t191 195l134 -129q-83 -76 -225 -165
t-257 -144z" />
    <glyph glyph-name="ocircumflex" unicode="&#xf4;" 
d="M565 109q129 0 206 99q77 98 77 286t-79 294t-207 106t-205 -99q-77 -100 -77 -287t78 -293t207 -106zM1014 517q0 -241 -137 -393t-331 -153t-314 137t-120 376t139 393q139 153 333 153t312 -136t118 -377zM823 1157l-272 234l-270 -232l-82 80l360 313h8l361 -295z
" />
    <glyph glyph-name="otilde" unicode="&#xf5;" 
d="M565 109q129 0 206 99q77 98 77 286t-79 294t-207 106t-205 -99q-77 -100 -77 -287t78 -293t207 -106zM1014 517q0 -241 -137 -393t-331 -153t-314 137t-120 376t139 393q139 153 333 153t312 -136t118 -377zM721 1171q-55 -1 -113 51t-105 103q-48 51 -83 51
q-72 0 -160 -188l-92 41q117 285 270 284q80 0 168 -104q87 -104 133 -102q70 0 158 190l94 -41q-120 -285 -270 -285z" />
    <glyph glyph-name="odieresis" unicode="&#xf6;" 
d="M565 109q129 0 206 99q77 98 77 286t-79 294t-207 106t-205 -99q-77 -100 -77 -287t78 -293t207 -106zM1014 517q0 -241 -137 -393t-331 -153t-314 137t-120 376t139 393q139 153 333 153t312 -136t118 -377zM424 1176h-168l2 278h170zM874 1176h-167l2 278h170z" />
    <glyph glyph-name="divide" unicode="&#xf7;" 
d="M653 135h-184l2 193h186zM125 530v140h876l-2 -140h-874zM653 872h-184l2 191h186z" />
    <glyph glyph-name="oslash" unicode="&#xf8;" 
d="M541 -29q-129 0 -230 66l-73 -107l-99 66l86 121q-113 139 -113 373t139 387q138 154 337 153q133 0 231 -67l76 108l98 -65l-86 -125q107 -135 107 -370t-137 -387t-336 -153zM580 106q116 0 193 100t77 269q0 170 -53 270l-400 -577q67 -62 183 -62zM279 526
q0 -170 55 -274l399 577q-73 66 -187 66t-191 -99q-76 -100 -76 -270z" />
    <glyph glyph-name="ugrave" unicode="&#xf9;" 
d="M168 324v673l166 13v-631q0 -141 50 -201t164 -61q114 0 240 92q-8 360 -8 795h166q0 -674 15 -998l-154 -10l-10 115q-164 -135 -334 -136q-295 0 -295 349zM774 1210l-49 -73q-262 135 -477 305l123 137q75 -83 197 -193t206 -176z" />
    <glyph glyph-name="uacute" unicode="&#xfa;" 
d="M168 324v673l166 13v-631q0 -141 50 -201t164 -61q114 0 240 92q-8 360 -8 795h166q0 -674 15 -998l-154 -10l-10 115q-164 -135 -334 -136q-295 0 -295 349zM352 1223q88 61 204 169t192 195l133 -129q-83 -76 -225 -165t-257 -144z" />
    <glyph glyph-name="ucircumflex" unicode="&#xfb;" 
d="M168 324v673l166 13v-631q0 -141 50 -201t164 -61q114 0 240 92q-8 360 -8 795h166q0 -674 15 -998l-154 -10l-10 115q-164 -135 -334 -136q-295 0 -295 349zM829 1153l-272 233l-270 -231l-82 80l360 313h8l361 -295z" />
    <glyph glyph-name="udieresis" unicode="&#xfc;" 
d="M168 324v673l166 13v-631q0 -141 50 -201t164 -61q114 0 240 92q-8 360 -8 795h166q0 -674 15 -998l-154 -10l-10 115q-164 -135 -334 -136q-295 0 -295 349zM428 1171h-168l2 279h170zM879 1171h-168l2 279h170z" />
    <glyph glyph-name="yacute" unicode="&#xfd;" 
d="M604 205l273 799h159q-154 -455 -321 -879q-102 -271 -211 -365t-361 -125l-14 154q193 29 263 72t122 166l-18 4q-143 311 -410 966l170 11q209 -532 328 -803h20zM362 1223q88 61 205 169t191 195l133 -129q-84 -76 -225 -165t-256 -144z" />
    <glyph glyph-name="thorn" unicode="&#xfe;" 
d="M640 1026q159 0 265 -131t107 -348q0 -260 -159 -416t-384 -156q-53 0 -119 11v-322l-164 -16v1784l164 14v-533q131 113 290 113zM520 119q143 0 236 102q92 103 92 285t-76 282t-195 100t-227 -77v-661q84 -31 170 -31z" />
    <glyph glyph-name="ydieresis" unicode="&#xff;" 
d="M604 205l273 799h159q-154 -455 -321 -879q-102 -271 -211 -365t-361 -125l-14 154q193 29 263 72t122 166l-18 4q-143 311 -410 966l170 11q209 -532 328 -803h20zM438 1171h-168l2 279h170zM889 1171h-168l2 279h170z" />
    <glyph glyph-name="Amacron" unicode="&#x100;" 
d="M553 1128q-35 -121 -97 -343t-75 -267h358q-119 436 -170 610h-16zM346 389l-102 -389h-170q197 715 370 1274h238q182 -582 371 -1268l-172 -12q-80 299 -107 395h-428zM903 1647v-144h-684v144h684z" />
    <glyph glyph-name="amacron" unicode="&#x101;" 
d="M137 236q0 164 166 259t483 76q-10 171 -130 233t-459 75l18 143q295 -8 451 -59t220 -159t64 -310t17 -490l-152 -10q0 4 -6 53t-8 76q-160 -147 -357 -148q-139 0 -223 70t-84 191zM508 106q147 0 285 109q-4 131 -5 238q-487 51 -487 -179q1 -80 57 -124t150 -44z
M901 1389v-144h-684v144h684z" />
    <glyph glyph-name="Abreve" unicode="&#x102;" 
d="M553 1128q-35 -121 -97 -343t-75 -267h358q-119 436 -170 610h-16zM346 389l-102 -389h-170q197 715 370 1274h238q182 -582 371 -1268l-172 -12q-80 299 -107 395h-428zM557 1423q-213 0 -377 295l117 68q76 -123 138 -175t138 -52t142 53t141 166l98 -52
q-184 -303 -397 -303z" />
    <glyph glyph-name="abreve" unicode="&#x103;" 
d="M137 236q0 164 166 259t483 76q-10 171 -130 233t-459 75l18 143q295 -8 451 -59t220 -159t64 -310t17 -490l-152 -10q0 4 -6 53t-8 76q-160 -147 -357 -148q-139 0 -223 70t-84 191zM508 106q147 0 285 109q-4 131 -5 238q-487 51 -487 -179q1 -80 57 -124t150 -44z
M557 1165q-213 0 -377 295l117 68q76 -123 138 -175q62 -53 138 -53t142 54t141 166l98 -52q-184 -303 -397 -303z" />
    <glyph glyph-name="Aogonek" unicode="&#x104;" 
d="M553 1128q-35 -121 -97 -343t-75 -267h358q-119 436 -170 610h-16zM629 -244q0 117 248 254q-33 125 -103 379h-428l-102 -389h-170q197 715 370 1274h238q182 -582 371 -1268q-268 -127 -269 -209q0 -76 240 -98l-16 -133q-379 29 -379 190z" />
    <glyph glyph-name="aogonek" unicode="&#x105;" 
d="M301 274q1 -80 53 -124t135 -44q162 0 302 156q-2 57 -3 191q-487 51 -487 -179zM541 -248q0 125 272 266q-12 108 -16 154q-162 -197 -367 -197q-131 0 -212 71t-81 190q0 164 166 259t483 76q-10 171 -130 233t-459 75l18 143q295 -8 451 -59t220 -159t64 -310t17 -490
q-270 -127 -271 -209q0 -76 240 -100l-14 -133q-381 29 -381 190z" />
    <glyph glyph-name="Cacute" unicode="&#x106;" 
d="M135 607q0 144 42 257q148 400 781 422l11 -164q-401 -4 -538 -137q-69 -69 -95 -149t-25 -207q0 -127 31 -218q69 -202 311 -252q131 -28 328 -20l-14 -145q-473 -32 -661 152q-171 167 -171 461zM424 1483q88 61 205 169t190 195l133 -129q-84 -76 -225 -165t-256 -144
z" />
    <glyph glyph-name="cacute" unicode="&#x107;" 
d="M164 473q0 230 172 383q172 154 598 162l12 -158q-378 0 -505 -96q-65 -50 -89 -110t-24 -146q0 -209 139 -301t494 -76l-19 -139q-446 -28 -612 111q-166 140 -166 370zM401 1217q88 61 205 169t191 195l133 -129q-84 -76 -225 -165t-256 -144z" />
    <glyph glyph-name="Cdotaccent" unicode="&#x10a;" 
d="M135 607q0 144 42 257q148 400 781 422l11 -164q-401 -4 -538 -137q-69 -69 -95 -149t-25 -207q0 -127 31 -218q69 -202 311 -252q131 -28 328 -20l-14 -145q-473 -32 -661 152q-171 167 -171 461zM725 1432h-170l6 278h174z" />
    <glyph glyph-name="cdotaccent" unicode="&#x10b;" 
d="M164 473q0 230 172 383q172 154 598 162l12 -158q-378 0 -505 -96q-65 -50 -89 -110t-24 -146q0 -209 139 -301t494 -76l-19 -139q-446 -28 -612 111q-166 140 -166 370zM702 1165h-170l7 279h174z" />
    <glyph glyph-name="Ccaron" unicode="&#x10c;" 
d="M135 607q0 144 42 257q148 400 781 422l11 -164q-401 -4 -538 -137q-69 -69 -95 -149t-25 -207q0 -127 31 -218q69 -202 311 -252q131 -28 328 -20l-14 -145q-473 -32 -661 152q-171 167 -171 461zM655 1403h-8l-360 293l104 100l273 -231l268 229l84 -82z" />
    <glyph glyph-name="ccaron" unicode="&#x10d;" 
d="M164 473q0 230 172 383q172 154 598 162l12 -158q-378 0 -505 -96q-65 -50 -89 -110t-24 -146q0 -209 139 -301t494 -76l-19 -139q-446 -28 -612 111q-166 140 -166 370zM633 1137h-8l-361 293l105 100l272 -232l268 230l84 -82z" />
    <glyph glyph-name="Dcaron" unicode="&#x10e;" 
d="M854 636q0 290 -120 412t-392 89v-1002q262 -39 387 86t125 415zM1026 658q0 -378 -215 -550t-637 -110v1274q456 64 654 -86t198 -528zM561 1415h-8l-360 293l104 100l272 -231l269 229l84 -82z" />
    <glyph glyph-name="dcaron" unicode="&#x10f;" 
d="M490 -25q-164 0 -270 128q-105 128 -105 348q0 263 164 419t403 156q47 0 90 -6v412l166 14v-447q0 -678 14 -995l-155 -8l-11 104q-132 -125 -296 -125zM551 113q121 0 227 86q-6 262 -6 657q-90 29 -166 29q-143 1 -235 -103t-92 -289t75 -283q76 -97 197 -97z
M1075 1157q90 217 23 485l186 3q35 -264 -133 -515z" />
    <glyph glyph-name="Dcroat" unicode="&#x110;" 
d="M854 636q0 290 -120 412t-392 89v-432h268l-6 -121h-262v-449q262 -39 387 86t125 415zM1026 658q0 -378 -215 -550t-637 -110v586h-143v121h143v567q456 64 654 -86t198 -528z" />
    <glyph glyph-name="dcroat" unicode="&#x111;" 
d="M490 -25q-164 0 -270 128q-105 128 -105 348q0 263 163 417t402 154q47 0 90 -6v168h-268v108h268v133l168 15v-148h141v-108h-141v-185q0 -678 14 -995l-155 -8l-11 104q-132 -125 -296 -125zM550 113q120 0 228 84q-4 209 -8 657q-90 29 -164 29q-143 1 -235 -103
t-92 -288t75 -282q76 -97 196 -97z" />
    <glyph glyph-name="Emacron" unicode="&#x112;" 
d="M215 0v1270h770v-146h-600v-417h518v-129h-518v-433h610l-16 -145h-764zM944 1647v-144h-684v144h684z" />
    <glyph glyph-name="emacron" unicode="&#x113;" 
d="M579 891q-124 0 -198 -85t-82 -245q150 6 530 17q-2 147 -64 230t-186 83zM135 487q0 227 138 384t338 157t301 -150t73 -403l-686 -16q13 -180 153 -256t498 -84l-16 -142q-458 0 -636 136q-89 67 -126 157t-37 217zM926 1395v-144h-684v144h684z" />
    <glyph glyph-name="Ebreve" unicode="&#x114;" 
d="M215 0v1270h770v-146h-600v-417h518v-129h-518v-433h610l-16 -145h-764zM598 1423q-213 0 -377 295l117 68q76 -123 138 -175t138 -52t142 53t141 166l98 -52q-184 -303 -397 -303z" />
    <glyph glyph-name="ebreve" unicode="&#x115;" 
d="M579 891q-124 0 -198 -85t-82 -245q150 6 530 17q-2 147 -64 230t-186 83zM135 487q0 227 138 384t338 157t301 -150t73 -403l-686 -16q13 -180 153 -256t498 -84l-16 -142q-458 0 -636 136q-89 67 -126 157t-37 217zM580 1171q-213 0 -377 295l116 68q77 -123 139 -175
t138 -52t142 53t141 166l98 -51q-184 -304 -397 -304z" />
    <glyph glyph-name="Edotaccent" unicode="&#x116;" 
d="M215 0v1270h770v-146h-600v-417h518v-129h-518v-433h610l-16 -145h-764zM688 1432h-170l6 278h174z" />
    <glyph glyph-name="edotaccent" unicode="&#x117;" 
d="M579 891q-124 0 -198 -85t-82 -245q150 6 530 17q-2 147 -64 230t-186 83zM135 487q0 227 138 384t338 157t301 -150t73 -403l-686 -16q13 -180 153 -256t498 -84l-16 -142q-458 0 -636 136q-89 67 -126 157t-37 217zM670 1180h-170l6 278h174z" />
    <glyph glyph-name="Eogonek" unicode="&#x118;" 
d="M557 -250q0 117 240 250h-582v1270h770v-146h-600v-417h518v-129h-518v-433h610l-16 -145q-268 -127 -268 -209q-1 -75 239 -98l-14 -135q-379 31 -379 192z" />
    <glyph glyph-name="eogonek" unicode="&#x119;" 
d="M579 891q-124 0 -198 -85t-82 -245q150 6 530 17q-2 147 -64 230t-186 83zM506 -252q0 127 260 248q-340 8 -485 130t-145 355t137 390q138 157 338 157t301 -150t73 -403l-686 -16q13 -180 153 -256t498 -84l-16 -137q-272 -104 -272 -187q0 -78 239 -100l-16 -133
q-379 29 -379 186z" />
    <glyph glyph-name="Ecaron" unicode="&#x11a;" 
d="M215 0v1270h770v-146h-600v-417h518v-129h-518v-433h610l-16 -145h-764zM618 1403h-8l-360 293l104 100l273 -231l268 229l84 -82z" />
    <glyph glyph-name="ecaron" unicode="&#x11b;" 
d="M579 891q-124 0 -198 -85t-82 -245q150 6 530 17q-2 147 -64 230t-186 83zM135 487q0 227 138 384t338 157t301 -150t73 -403l-686 -16q13 -180 153 -256t498 -84l-16 -142q-458 0 -636 136q-89 67 -126 157t-37 217zM600 1151h-8l-361 293l105 100l272 -231l269 229
l84 -82z" />
    <glyph glyph-name="Gbreve" unicode="&#x11e;" 
d="M111 602q0 655 811 684l10 -164q-449 0 -577 -195q-42 -65 -56 -133t-14 -161q0 -267 123 -399t413 -113q-6 412 -6 516h160q0 -541 2 -623q-434 -92 -650 72t-216 516zM594 1423q-213 0 -377 295l117 68q76 -123 138 -175t138 -52t142 53t141 166l98 -52
q-184 -303 -397 -303z" />
    <glyph glyph-name="gbreve" unicode="&#x11f;" 
d="M283 542q1 -161 77 -246t195 -85t229 70v573q-109 31 -190 31q-137 0 -224 -91t-87 -252zM494 78q-162 0 -269 115q-106 115 -106 309q0 236 155 380q156 144 379 144q139 0 293 -47q2 -80 2 -746q0 -137 -30 -235t-107 -176q-152 -156 -553 -176l-16 151q271 22 394 67
q64 24 94 68t41 98t13 146q-128 -98 -290 -98zM584 1169q-213 0 -377 295l117 68q76 -123 138 -175t138 -52t142 53t141 166l98 -51q-184 -304 -397 -304z" />
    <glyph glyph-name="Gdotaccent" unicode="&#x120;" 
d="M111 602q0 655 811 684l10 -164q-449 0 -577 -195q-42 -65 -56 -133t-14 -161q0 -267 123 -399t413 -113q-6 412 -6 516h160q0 -541 2 -623q-434 -92 -650 72t-216 516zM682 1432h-170l6 278h174z" />
    <glyph glyph-name="gdotaccent" unicode="&#x121;" 
d="M283 542q1 -161 77 -246t195 -85t229 70v573q-109 31 -190 31q-137 0 -224 -91t-87 -252zM494 78q-162 0 -269 115q-106 115 -106 309q0 236 155 380q156 144 379 144q139 0 293 -47q2 -80 2 -746q0 -137 -30 -235t-107 -176q-152 -156 -553 -176l-16 151q271 22 394 67
q64 24 94 68t41 98t13 146q-128 -98 -290 -98zM674 1178h-170l6 278h174z" />
    <glyph glyph-name="Gcommaaccent" unicode="&#x122;" 
d="M489 -166l205 10q14 -108 -18 -222t-115 -208l-84 27q90 190 12 393zM111 602q0 655 811 684l10 -164q-449 0 -577 -195q-42 -65 -56 -133t-14 -161q0 -267 123 -399t413 -113q-6 412 -6 516h160q0 -541 2 -623q-434 -92 -650 72t-216 516z" />
    <glyph glyph-name="gcommaaccent" unicode="&#x123;" 
d="M283 542q1 -161 77 -246t195 -85t229 70v573q-109 31 -190 31q-137 0 -224 -91t-87 -252zM494 78q-162 0 -269 115q-106 115 -106 309q0 236 155 380q156 144 379 144q139 0 293 -47q2 -80 2 -746q0 -137 -30 -235t-107 -176q-152 -156 -553 -176l-16 151q271 22 394 67
q64 24 94 68t41 98t13 146q-128 -98 -290 -98zM700 1573q-90 -190 -12 -393l-205 -11q-14 109 19 223t114 207z" />
    <glyph glyph-name="Hbar" unicode="&#x126;" 
d="M791 0v549h-455v-549h-174v909h-144v119h144v242h174v-246h455v246h174v-242h143v-119h-143v-909h-174zM791 680v233h-455v-233h455z" />
    <glyph glyph-name="hbar" unicode="&#x127;" 
d="M799 625q1 139 -51 199t-164 61q-112 0 -238 -82v-803h-166v1184h-143v108h143v140l166 14v-154h268v-108h-268v-283q152 121 320 121q299 0 299 -342v-680h-166v625z" />
    <glyph glyph-name="Imacron" unicode="&#x12a;" 
d="M647 1135v-1000h324l-13 -135h-794v135h313v1000h-313v135h799v-135h-316zM909 1647v-144h-684v144h684z" />
    <glyph glyph-name="imacron" unicode="&#x12b;" 
d="M145 0v127h377v743l-375 17l13 117h528v-877h377l-12 -127h-908zM948 1380v-143h-684v143h684z" />
    <glyph glyph-name="Ibreve" unicode="&#x12c;" 
d="M647 1135v-1000h324l-13 -135h-794v135h313v1000h-313v135h799v-135h-316zM563 1423q-213 0 -377 295l117 68q76 -123 138 -175q63 -52 139 -52t142 53t140 166l99 -52q-185 -303 -398 -303z" />
    <glyph glyph-name="ibreve" unicode="&#x12d;" 
d="M145 0v127h377v743l-375 17l13 117h528v-877h377l-12 -127h-908zM602 1157q-213 0 -377 295l117 68q76 -123 138 -175q62 -53 138 -53t142 54t141 165l98 -51q-184 -303 -397 -303z" />
    <glyph glyph-name="Iogonek" unicode="&#x12e;" 
d="M328 -238q0 106 168 238h-332v135h313v1000h-313v135h799v-135h-316v-1000h324l-13 -135h-319q-156 -128 -156 -204t240 -101l-16 -133q-379 31 -379 200z" />
    <glyph glyph-name="iogonek" unicode="&#x12f;" 
d="M350 -246q0 113 182 246h-387v127h377v743l-375 17l13 117h528v-877h377l-12 -127h-373q-174 -129 -174 -203q-1 -81 239 -104l-16 -135q-379 31 -379 196zM680 1165h-170l12 279h176z" />
    <glyph glyph-name="Idotaccent" unicode="&#x130;" 
d="M647 1135v-1000h324l-13 -135h-794v135h313v1000h-313v135h799v-135h-316zM653 1432h-170l6 278h175z" />
    <glyph glyph-name="dotlessi" unicode="&#x131;" 
d="M145 0v127h377v743l-375 17l13 117h528v-877h377l-12 -127h-908z" />
    <glyph glyph-name="Kcommaaccent" unicode="&#x136;" 
d="M455 -160l204 10q13 -108 -19 -222t-114 -208l-84 27q90 190 13 393zM356 571v-571h-170v1270h170v-559h140l354 559h182l-403 -621l434 -639l-186 -22l-390 583h-131z" />
    <glyph glyph-name="kcommaaccent" unicode="&#x137;" 
d="M492 -160l204 10q14 -108 -18 -222t-115 -208l-84 27q90 190 13 393zM373 0h-166v1432l166 14v-877l155 4q180 211 332 435l170 -13q-199 -281 -362 -473l385 -510l-176 -24l-355 463l-149 -5v-446z" />
    <glyph glyph-name="Lacute" unicode="&#x139;" 
d="M231 0v1270h172v-1125h617l-16 -145h-773zM403 1483q88 61 205 169t191 195l133 -129q-84 -76 -225 -165t-256 -144z" />
    <glyph glyph-name="lacute" unicode="&#x13a;" 
d="M160 0v127h325v1169l-309 15l14 119h463v-1303h328l-14 -127h-807zM354 1642q88 61 204 169t192 196l133 -129q-83 -76 -225 -165t-257 -144z" />
    <glyph glyph-name="Lcommaaccent" unicode="&#x13b;" 
d="M512 -147l205 10q14 -109 -19 -223t-114 -207l-84 26q90 190 12 394zM231 0v1270h172v-1125h617l-16 -145h-773z" />
    <glyph glyph-name="lcommaaccent" unicode="&#x13c;" 
d="M463 -147l205 10q14 -109 -19 -223t-114 -207l-84 26q90 190 12 394zM160 0v127h325v1169l-309 15l14 119h463v-1303h328l-14 -127h-807z" />
    <glyph glyph-name="Lcaron" unicode="&#x13d;" 
d="M231 0v1270h172v-1125h617l-16 -145h-773zM754 948q90 217 22 486l187 2q35 -264 -134 -514z" />
    <glyph glyph-name="lcaron" unicode="&#x13e;" 
d="M160 0v127h325v1169l-309 15l14 119h463v-1303h328l-14 -127h-807zM889 1157q90 217 22 485l187 3q35 -264 -133 -515z" />
    <glyph glyph-name="Ldot" unicode="&#x13f;" 
d="M969 545h-189l13 221h188zM231 0v1270h172v-1125h617l-16 -145h-773z" />
    <glyph glyph-name="ldot" unicode="&#x140;" 
d="M1221 543h-189l12 223h187zM160 0v127h325v1169l-309 15l14 119h463v-1303h328l-14 -127h-807z" />
    <glyph glyph-name="Lslash" unicode="&#x141;" 
d="M231 0v602l-139 -72l-29 117l168 86v537h172v-449l281 146l29 -117l-310 -160v-545h617l-16 -145h-773z" />
    <glyph glyph-name="lslash" unicode="&#x142;" 
d="M160 0v127h325v514l-235 -121l-27 113l262 135v528l-309 15l14 119h463v-574l224 115l26 -113l-250 -129v-602h328l-14 -127h-807z" />
    <glyph glyph-name="Nacute" unicode="&#x143;" 
d="M164 0v1270h178l461 -967h8l-6 967h160v-1270h-162l-477 985h-11l7 -985h-158zM346 1483q88 61 205 169t190 195l133 -129q-84 -76 -225 -165t-256 -144z" />
    <glyph glyph-name="nacute" unicode="&#x144;" 
d="M799 625q1 139 -51 199t-166 61q-114 0 -244 -88q8 -365 8 -797h-166q0 674 -14 997l153 11l11 -115q160 133 336 133q299 0 299 -346v-680h-166v625zM350 1241q88 61 205 169t190 196l134 -129q-83 -76 -225 -165t-257 -145z" />
    <glyph glyph-name="Ncommaaccent" unicode="&#x145;" 
d="M453 -147l204 10q13 -109 -19 -223t-114 -207l-84 26q90 190 13 394zM164 0v1270h178l461 -967h8l-6 967h160v-1270h-162l-477 985h-11l7 -985h-158z" />
    <glyph glyph-name="ncommaaccent" unicode="&#x146;" 
d="M487 -147l205 10q14 -109 -18 -223t-115 -207l-84 26q90 190 12 394zM799 625q1 139 -51 199t-166 61q-114 0 -244 -88q8 -365 8 -797h-166q0 674 -14 997l153 11l11 -115q160 133 336 133q299 0 299 -346v-680h-166v625z" />
    <glyph glyph-name="Ncaron" unicode="&#x147;" 
d="M164 0v1270h178l461 -967h8l-6 967h160v-1270h-162l-477 985h-11l7 -985h-158zM578 1403h-9l-360 293l104 100l273 -231l268 229l84 -82z" />
    <glyph glyph-name="ncaron" unicode="&#x148;" 
d="M799 625q1 139 -51 199t-166 61q-114 0 -244 -88q8 -365 8 -797h-166q0 674 -14 997l153 11l11 -115q160 133 336 133q299 0 299 -346v-680h-166v625zM582 1161h-9l-360 293l104 100l273 -231l268 229l84 -82z" />
    <glyph glyph-name="Omacron" unicode="&#x14c;" 
d="M557 1159q-289 0 -289 -516q0 -260 77 -396t224 -136q289 0 289 516q0 260 -78 396t-223 136zM578 1300q222 0 338 -164t117 -484q1 -318 -131 -500t-353 -183q-221 0 -338 166q-117 167 -117 485t131 499t353 181zM911 1661v-143h-684v143h684z" />
    <glyph glyph-name="omacron" unicode="&#x14d;" 
d="M565 109q129 0 206 99q77 98 77 286t-79 294t-207 106t-205 -99q-77 -100 -77 -287t78 -293t207 -106zM1014 517q0 -241 -137 -393t-331 -153t-314 137t-120 376t139 393q139 153 333 153t312 -136t118 -377zM905 1391v-144h-684v144h684z" />
    <glyph glyph-name="Obreve" unicode="&#x14e;" 
d="M557 1159q-289 0 -289 -516q0 -260 77 -396t224 -136q289 0 289 516q0 260 -78 396t-223 136zM578 1300q222 0 338 -164t117 -484q1 -318 -131 -500t-353 -183q-221 0 -338 166q-117 167 -117 485t131 499t353 181zM565 1438q-213 0 -377 295l117 67q76 -123 138 -175
q63 -52 139 -52t142 53t140 166l99 -51q-185 -303 -398 -303z" />
    <glyph glyph-name="obreve" unicode="&#x14f;" 
d="M565 109q129 0 206 99q77 98 77 286t-79 294t-207 106t-205 -99q-77 -100 -77 -287t78 -293t207 -106zM1014 517q0 -241 -137 -393t-331 -153t-314 137t-120 376t139 393q139 153 333 153t312 -136t118 -377zM559 1167q-213 0 -377 295l117 68q76 -123 138 -175t138 -52
t142 53t141 166l98 -52q-184 -303 -397 -303z" />
    <glyph glyph-name="Ohungarumlaut" unicode="&#x150;" 
d="M557 1159q-289 0 -289 -516q0 -260 77 -396t224 -136q289 0 289 516q0 260 -78 396t-223 136zM578 1300q222 0 338 -164t117 -484q1 -318 -131 -500t-353 -183q-221 0 -338 166q-117 167 -117 485t131 499t353 181zM692 1477q133 197 213 401l172 -72
q-129 -205 -305 -379zM266 1481q131 188 217 407l166 -80q-121 -199 -303 -381z" />
    <glyph glyph-name="ohungarumlaut" unicode="&#x151;" 
d="M565 109q129 0 206 99q77 98 77 286t-79 294t-207 106t-205 -99q-77 -100 -77 -287t78 -293t207 -106zM1014 517q0 -241 -137 -393t-331 -153t-314 137t-120 376t139 393q139 153 333 153t312 -136t118 -377zM686 1206q133 197 213 402l172 -72q-129 -205 -305 -379z
M260 1210q131 188 217 408l166 -80q-121 -199 -303 -381z" />
    <glyph glyph-name="OE" unicode="&#x152;" 
d="M598 0q-268 0 -395 147t-127 466t132 488t394 169h434v-146h-336v-417h281v-129h-281v-433h344l-12 -145h-434zM246 634q0 -257 72 -373t235 -116v977q-159 -2 -233 -116t-74 -372z" />
    <glyph glyph-name="oe" unicode="&#x153;" 
d="M815 1016q272 0 238 -543l-396 -10q6 -186 83 -259t300 -79l-16 -137q-336 2 -436 190q-78 -193 -238 -192q-133 0 -209 124q-75 124 -75 372t86 391t230 143t212 -164q78 164 221 164zM383 121q135 0 135 368q0 187 -40 289t-109 103q-139 0 -139 -380t153 -380z
M786 883q-121 0 -129 -318l252 10q0 156 -27 232q-28 76 -96 76z" />
    <glyph glyph-name="Racute" unicode="&#x154;" 
d="M801 889q0 145 -110 213t-333 35v-549l277 8q166 111 166 293zM358 0h-170v1268q780 115 781 -342q0 -217 -213 -371l303 -549l-182 -26l-259 491l-260 -8v-463zM326 1499q88 61 204 169t191 196l133 -129q-84 -76 -225 -165t-256 -145z" />
    <glyph glyph-name="racute" unicode="&#x155;" 
d="M137 0v127h266q-8 606 -12 743l-254 15l13 119h389q8 -86 12 -173q168 174 459 209l8 -176q-291 -23 -461 -133q0 -72 8 -604h340l-14 -127h-754zM395 1233q88 61 205 169t191 195l133 -129q-84 -76 -226 -164t-256 -145z" />
    <glyph glyph-name="Rcommaaccent" unicode="&#x156;" 
d="M504 -168l205 10q14 -108 -19 -222t-115 -208l-83 27q90 190 12 393zM801 889q0 145 -110 213t-333 35v-549l277 8q166 111 166 293zM358 0h-170v1268q780 115 781 -342q0 -217 -213 -371l303 -549l-182 -26l-259 491l-260 -8v-463z" />
    <glyph glyph-name="rcommaaccent" unicode="&#x157;" 
d="M420 -147l205 10q14 -109 -19 -223t-114 -207l-84 26q90 190 12 394zM137 0v127h266q-8 606 -12 743l-254 15l13 119h389q8 -86 12 -173q168 174 459 209l8 -176q-291 -23 -461 -133q0 -72 8 -604h340l-14 -127h-754z" />
    <glyph glyph-name="Rcaron" unicode="&#x158;" 
d="M801 889q0 145 -110 213t-333 35v-549l277 8q166 111 166 293zM358 0h-170v1268q780 115 781 -342q0 -217 -213 -371l303 -549l-182 -26l-259 491l-260 -8v-463zM557 1419h-8l-361 293l105 100l272 -231l269 229l84 -81z" />
    <glyph glyph-name="rcaron" unicode="&#x159;" 
d="M137 0v127h266q-8 606 -12 743l-254 15l13 119h389q8 -86 12 -173q168 174 459 209l8 -176q-291 -23 -461 -133q0 -72 8 -604h340l-14 -127h-754zM627 1153h-9l-360 293l104 100l273 -231l268 229l84 -82z" />
    <glyph glyph-name="Sacute" unicode="&#x15a;" 
d="M174 940q0 154 181 257t544 83l10 -158q-561 39 -561 -155q0 -101 223 -224q91 -49 185 -102t160 -127t65 -158q0 -166 -200 -278t-607 -90l2 157q324 -27 478 29t153 162q0 107 -224 227q-93 49 -185 101t-158 122q-66 72 -66 154zM385 1491q88 61 204 169t191 195
l133 -129q-84 -76 -225 -164t-256 -145z" />
    <glyph glyph-name="sacute" unicode="&#x15b;" 
d="M379 750q0 -77 200 -163q83 -36 165 -76t142 -98q58 -58 58 -130q0 -141 -176 -227t-565 -64l6 147q563 -45 563 129q0 87 -198 167q-84 34 -166 72t-140 94q-57 56 -57 126q0 137 165 225t519 60l6 -148q-522 47 -522 -114zM354 1219q88 61 204 169t192 195l133 -129
q-83 -76 -225 -165t-257 -144z" />
    <glyph glyph-name="Scedilla" unicode="&#x15e;" 
d="M590 -231q0 70 -193 184l19 35q-111 -6 -242 0l2 157q324 -27 478 29t153 162q0 107 -224 227q-93 49 -185 101t-158 122q-66 72 -66 154q0 154 181 257t544 83l10 -158q-561 39 -561 -155q0 -101 223 -224q91 -49 185 -102t160 -127t65 -158q0 -125 -115 -224t-350 -132
q221 -125 221 -248q1 -78 -95 -134t-280 -79l-12 131q240 35 240 99z" />
    <glyph glyph-name="scedilla" unicode="&#x15f;" 
d="M772 268q0 87 -198 167q-84 34 -166 72t-140 94q-57 56 -57 126q0 137 165 224t519 61l6 -148q-522 47 -522 -114q0 -77 200 -163q83 -36 165 -76t142 -98q58 -58 58 -130q0 -101 -96 -179t-305 -104q217 -125 217 -246q0 -78 -96 -134t-279 -79l-12 131q240 35 239 99
q0 70 -192 184l18 35q-117 -4 -235 2l6 147q563 -45 563 129z" />
    <glyph glyph-name="Scaron" unicode="&#x160;" 
d="M174 940q0 154 181 257t544 83l10 -158q-561 39 -561 -155q0 -101 223 -224q91 -49 185 -102t160 -127t65 -158q0 -166 -200 -278t-607 -90l2 157q324 -27 478 29t153 162q0 107 -224 227q-93 49 -185 101t-158 122q-66 72 -66 154zM616 1411h-8l-360 293l104 100
l273 -231l268 229l84 -82z" />
    <glyph glyph-name="scaron" unicode="&#x161;" 
d="M379 750q0 -77 200 -163q83 -36 165 -76t142 -98q58 -58 58 -130q0 -141 -176 -227t-565 -64l6 147q563 -45 563 129q0 87 -198 167q-84 34 -166 72t-140 94q-57 56 -57 126q0 137 165 225t519 60l6 -148q-522 47 -522 -114zM586 1139h-8l-361 293l105 100l272 -232
l268 230l84 -82z" />
    <glyph glyph-name="Tcommaaccent" unicode="&#x162;" 
d="M451 -147l204 10q13 -109 -19 -223t-114 -207l-84 26q90 190 13 394zM651 1124v-1124h-172v1124h-399l14 146h948v-146h-391z" />
    <glyph glyph-name="tcommaaccent" unicode="&#x163;" 
d="M528 -164l205 10q13 -108 -19 -222t-114 -208l-84 27q90 190 12 393zM362 874h-206l16 130h190v278l166 14v-292h410v-130h-410v-526q0 -129 89 -175t344 -50l-19 -139q-322 -4 -450 72t-130 266v552z" />
    <glyph glyph-name="Tcaron" unicode="&#x164;" 
d="M651 1124v-1124h-172v1124h-399l14 146h948v-146h-391zM573 1403h-8l-360 293l104 100l273 -231l268 229l84 -82z" />
    <glyph glyph-name="tcaron" unicode="&#x165;" 
d="M362 874h-206l16 130h190v278l166 14v-292h410v-130h-410v-526q0 -129 89 -175t344 -50l-19 -139q-322 -4 -450 72t-130 266v552zM727 1214q90 217 23 486l186 2q35 -264 -133 -514z" />
    <glyph glyph-name="Umacron" unicode="&#x16a;" 
d="M971 418q-1 -213 -111 -331t-302 -118t-299 115q-105 115 -105 326v860h172v-848q0 -305 243 -305q119 -1 175 65t57 209v879h170v-852zM905 1647v-144h-684v144h684z" />
    <glyph glyph-name="umacron" unicode="&#x16b;" 
d="M168 324v673l166 13v-631q0 -141 50 -201t164 -61q114 0 240 92q-8 360 -8 795h166q0 -674 15 -998l-154 -10l-10 115q-164 -135 -334 -136q-295 0 -295 349zM909 1386v-143h-684v143h684z" />
    <glyph glyph-name="Ubreve" unicode="&#x16c;" 
d="M971 418q-1 -213 -111 -331t-302 -118t-299 115q-105 115 -105 326v860h172v-848q0 -305 243 -305q119 -1 175 65t57 209v879h170v-852zM559 1423q-213 0 -377 295l117 68q76 -123 138 -175t138 -52t142 53t141 166l98 -52q-184 -303 -397 -303z" />
    <glyph glyph-name="ubreve" unicode="&#x16d;" 
d="M168 324v673l166 13v-631q0 -141 50 -201t164 -61q114 0 240 92q-8 360 -8 795h166q0 -674 15 -998l-154 -10l-10 115q-164 -135 -334 -136q-295 0 -295 349zM565 1163q-213 0 -377 295l117 68q76 -123 138 -175q63 -53 139 -53t142 54t140 166l99 -52
q-185 -303 -398 -303z" />
    <glyph glyph-name="Uring" unicode="&#x16e;" 
d="M971 418q-1 -213 -111 -331t-302 -118t-299 115q-105 115 -105 326v860h172v-848q0 -305 243 -305q119 -1 175 65t57 209v879h170v-852zM563 1389q-119 0 -195 61q-76 60 -75 154q-1 94 73 156t193 63q119 -1 196 -63t77 -154t-75 -155q-75 -62 -194 -62z" />
    <glyph glyph-name="uring" unicode="&#x16f;" 
d="M168 324v673l166 13v-631q0 -141 50 -201t164 -61q114 0 240 92q-8 360 -8 795h166q0 -674 15 -998l-154 -10l-10 115q-164 -135 -334 -136q-295 0 -295 349zM563 1563q119 -1 196 -63t77 -154t-75 -154t-194 -64q-119 0 -195 62t-75 154q-1 93 73 156t193 63z" />
    <glyph glyph-name="Uhungarumlaut" unicode="&#x170;" 
d="M971 418q-1 -213 -111 -331t-302 -118t-299 115q-105 115 -105 326v860h172v-848q0 -305 243 -305q119 -1 175 65t57 209v879h170v-852zM684 1462q133 197 213 402l172 -72q-129 -205 -305 -379zM258 1466q131 188 217 408l166 -80q-121 -199 -303 -381z" />
    <glyph glyph-name="uhungarumlaut" unicode="&#x171;" 
d="M168 324v673l166 13v-631q0 -141 50 -201t164 -61q114 0 240 92q-8 360 -8 795h166q0 -674 15 -998l-154 -10l-10 115q-164 -135 -334 -136q-295 0 -295 349zM690 1202q133 197 213 402l172 -72q-129 -205 -305 -379zM264 1206q131 188 217 408l166 -80
q-121 -199 -303 -381z" />
    <glyph glyph-name="Uogonek" unicode="&#x172;" 
d="M371 -250q0 111 172 217q-188 10 -289 124q-100 114 -100 319v860h172v-848q0 -305 243 -305q119 -1 175 65t57 209v879h170v-852q0 -144 -48 -236t-171 -173t-175 -127t-53 -87q0 -80 240 -102l-14 -135q-379 31 -379 192z" />
    <glyph glyph-name="uogonek" unicode="&#x173;" 
d="M168 324v673l166 13v-631q0 -141 48 -201t144 -61q129 0 262 143q-8 352 -8 744h166q0 -674 15 -998q-268 -127 -269 -209q0 -76 240 -100l-17 -133q-379 29 -378 190q0 125 268 264l-10 142q-162 -184 -338 -185q-289 0 -289 349z" />
    <glyph glyph-name="Wcircumflex" unicode="&#x174;" 
d="M745 0l-184 676l-178 -676h-180q-59 459 -99 1270h168q31 -760 60 -1053h8q23 82 176 676h102q82 -307 183 -676h6q23 201 57 1053h160q-39 -784 -100 -1270h-179zM831 1413l-272 234l-270 -232l-82 80l360 313h8l361 -295z" />
    <glyph glyph-name="wcircumflex" unicode="&#x175;" 
d="M618 729l181 -524h8q29 483 45 799h156q-33 -539 -101 -1004h-153l-193 561l-190 -561h-150q-70 444 -102 1004h164q23 -434 49 -795h8l176 520h102zM825 1147l-272 233l-270 -231l-82 80l360 313h8l361 -295z" />
    <glyph glyph-name="Ycircumflex" unicode="&#x176;" 
d="M651 0h-172v422l-411 844l182 8l319 -688l314 684h176l-408 -848v-422zM829 1417l-272 234l-270 -232l-82 80l360 313h8l361 -294z" />
    <glyph glyph-name="ycircumflex" unicode="&#x177;" 
d="M604 205l273 799h159q-154 -455 -321 -879q-102 -271 -211 -365t-361 -125l-14 154q193 29 263 72t122 166l-18 4q-143 311 -410 966l170 11q209 -532 328 -803h20zM838 1153l-273 233l-270 -231l-82 80l360 313h9l360 -295z" />
    <glyph glyph-name="Ydieresis" unicode="&#x178;" 
d="M651 0h-172v422l-411 844l182 8l319 -688l314 684h176l-408 -848v-422zM430 1436h-168l2 278h170zM881 1436h-168l2 278h170z" />
    <glyph glyph-name="Zacute" unicode="&#x179;" 
d="M137 0v145l666 977l-658 -2l13 150h827v-146l-661 -977l675 3l-14 -150h-848zM373 1483q88 61 204 169t191 195l133 -129q-84 -76 -225 -165t-256 -144z" />
    <glyph glyph-name="zacute" unicode="&#x17a;" 
d="M150 0v141l636 719l-630 -4l12 148h809v-140l-637 -721l655 4l-12 -147h-833zM367 1217q87 61 203 169t192 195l133 -129q-84 -76 -225 -165t-256 -144z" />
    <glyph glyph-name="Zdotaccent" unicode="&#x17b;" 
d="M137 0v145l666 977l-658 -2l13 150h827v-146l-661 -977l675 3l-14 -150h-848zM674 1432h-170l6 278h174z" />
    <glyph glyph-name="zdotaccent" unicode="&#x17c;" 
d="M150 0v141l636 719l-630 -4l12 148h809v-140l-637 -721l655 4l-12 -147h-833zM668 1165h-170l6 279h174z" />
    <glyph glyph-name="Zcaron" unicode="&#x17d;" 
d="M137 0v145l666 977l-658 -2l13 150h827v-146l-661 -977l675 3l-14 -150h-848zM604 1403h-8l-360 293l104 100l272 -231l269 229l84 -82z" />
    <glyph glyph-name="zcaron" unicode="&#x17e;" 
d="M150 0v141l636 719l-630 -4l12 148h809v-140l-637 -721l655 4l-12 -147h-833zM598 1137h-8l-361 293l105 100l272 -232l268 230l84 -82z" />
    <glyph glyph-name="Aringacute" unicode="&#x1fa;" 
d="M553 1128q-35 -121 -97 -343t-75 -267h358q-119 436 -170 610h-16zM346 389l-102 -389h-170q197 715 370 1274h238q182 -582 371 -1268l-172 -12q-80 299 -107 395h-428zM559 1389q-119 0 -195 61q-76 60 -75 154q-1 94 73 156t193 63q119 -1 196 -63t77 -154t-75 -155
q-75 -62 -194 -62zM346 1978q88 61 205 169t190 196l133 -129q-84 -76 -225 -165t-256 -144z" />
    <glyph glyph-name="aringacute" unicode="&#x1fb;" 
d="M137 236q0 164 166 259t483 76q-10 171 -130 233t-459 75l18 143q295 -8 451 -59t220 -159t64 -310t17 -490l-152 -10q0 4 -6 53t-8 76q-160 -147 -357 -148q-139 0 -223 70t-84 191zM508 106q147 0 285 109q-4 131 -5 238q-487 51 -487 -179q1 -80 57 -124t150 -44z
M555 1565q119 -1 196 -63t77 -154t-75 -155t-194 -63t-195 62t-75 154q0 93 73 156q74 63 193 63zM344 1724q88 61 204 169t191 196l133 -129q-84 -76 -225 -165t-256 -144z" />
    <glyph glyph-name="AEacute" unicode="&#x1fc;" 
d="M537 0v373h-248q-78 -250 -115 -373h-166q123 393 416 1270h616v-146h-354v-417h299v-129h-299v-433h363l-13 -145h-499zM537 500v624h-13q-148 -468 -196 -624h209zM438 1483q88 61 204 169t192 195l133 -129q-83 -76 -225 -165t-257 -144z" />
    <glyph glyph-name="aeacute" unicode="&#x1fd;" 
d="M70 238q0 317 409 325q-4 178 -73 236q-70 57 -293 71l12 142q189 -10 285 -48t137 -124q80 176 246 176q141 0 207 -144t51 -403l-428 -10q3 -123 33 -190t118 -103t258 -39l-14 -139q-356 2 -467 153q-100 -156 -264 -155q-96 0 -157 67q-60 68 -60 185zM346 119
q94 0 164 106q-31 90 -31 232q-254 0 -254 -181q0 -78 33 -118t88 -39zM767 879q-136 0 -144 -316l276 4q4 312 -132 312zM348 1217q88 61 204 169t191 195l134 -129q-83 -76 -225 -165t-257 -144z" />
    <glyph glyph-name="Oslashacute" unicode="&#x1fe;" 
d="M541 -31q-135 0 -236 70l-61 -113l-107 58l80 143q-123 167 -123 489t131 503t361 181q139 0 239 -71l60 114l108 -57l-80 -145q119 -167 120 -487t-131 -502t-361 -183zM569 111q291 0 291 516q0 217 -53 348l-428 -778q71 -86 190 -86zM266 643q0 -213 53 -348l429 778
q-74 86 -191 86q-291 0 -291 -516zM348 1499q88 61 204 169t191 196l134 -129q-83 -76 -225 -165t-257 -145z" />
    <glyph glyph-name="oslashacute" unicode="&#x1ff;" 
d="M541 -29q-129 0 -230 66l-73 -107l-99 66l86 121q-113 139 -113 373t139 387q138 154 337 153q133 0 231 -67l76 108l98 -65l-86 -125q107 -135 107 -370t-137 -387t-336 -153zM580 106q116 0 193 100t77 269q0 170 -53 270l-400 -577q67 -62 183 -62zM279 526
q0 -170 55 -274l399 577q-73 66 -187 66t-191 -99q-76 -100 -76 -270zM348 1227q88 61 204 169t191 195l134 -129q-83 -76 -225 -165t-257 -144z" />
    <glyph glyph-name="Scommaaccent" unicode="&#x218;" 
d="M451 -170l204 10q13 -108 -19 -222t-114 -208l-84 27q90 190 13 393zM174 940q0 154 181 257t544 83l10 -158q-561 39 -561 -155q0 -101 223 -224q91 -49 185 -102t160 -127t65 -158q0 -166 -200 -278t-607 -90l2 157q324 -27 478 29t153 162q0 107 -224 227
q-93 49 -185 101t-158 122q-66 72 -66 154z" />
    <glyph glyph-name="scommaaccent" unicode="&#x219;" 
d="M440 -168l205 10q13 -108 -19 -222t-114 -208l-84 27q90 190 12 393zM379 750q0 -77 200 -163q83 -36 165 -76t142 -98q58 -58 58 -130q0 -141 -176 -227t-565 -64l6 147q563 -45 563 129q0 87 -198 167q-84 34 -166 72t-140 94q-57 56 -57 126q0 137 165 225t519 60
l6 -148q-522 47 -522 -114z" />
    <glyph glyph-name="schwa" unicode="&#x259;" 
d="M549 113q123 0 197 85t81 244q-166 -6 -530 -16q1 -147 65 -230t187 -83zM515 -25q-200 0 -300 151t-72 400l684 19q-12 180 -153 256t-498 84l19 141q305 0 484 -62t247 -168t67 -280q0 -227 -139 -384t-339 -157z" />
    <glyph glyph-name="circumflex" unicode="&#x2c6;" 
d="M823 1147l-272 233l-270 -231l-82 80l360 313h8l361 -295z" />
    <glyph glyph-name="caron" unicode="&#x2c7;" 
d="M567 1137h-8l-360 293l104 100l272 -232l269 230l84 -82z" />
    <glyph glyph-name="breve" unicode="&#x2d8;" 
d="M555 1157q-213 0 -377 295l117 68q76 -123 138 -175q62 -53 138 -53t142 54t141 165l98 -51q-184 -303 -397 -303z" />
    <glyph glyph-name="dotaccent" unicode="&#x2d9;" 
d="M643 1165h-170l6 279h174z" />
    <glyph glyph-name="ring" unicode="&#x2da;" 
d="M311 1338q0 94 74 156t193 62q120 0 196 -62t76 -154t-75 -155t-193 -63t-195 62q-76 62 -76 154z" />
    <glyph glyph-name="ogonek" unicode="&#x2db;" 
d="M504 -209q0 -76 239 -98l-14 -135q-379 31 -379 192q0 74 87 150t290 170l45 -70q-268 -127 -268 -209z" />
    <glyph glyph-name="tilde" unicode="&#x2dc;" 
d="M707 1161q-55 0 -113 51q-58 50 -106 102t-82 52q-72 0 -160 -188l-92 41q117 285 270 284q78 1 166 -103t135 -104q70 0 158 191l94 -41q-120 -285 -270 -285z" />
    <glyph glyph-name="hungarumlaut" unicode="&#x2dd;" 
d="M686 1196q133 197 213 401l172 -71q-129 -205 -305 -379zM260 1200q131 188 217 408l166 -80q-121 -199 -303 -381z" />
    <glyph glyph-name="commaaccent" unicode="&#x326;" 
d="M444 -147l205 10q13 -109 -19 -223t-114 -207l-84 26q90 190 12 394z" />
    <glyph glyph-name="Wgrave" unicode="&#x1e80;" 
d="M745 0l-184 676l-178 -676h-180q-59 459 -99 1270h168q31 -760 60 -1053h8q23 82 176 676h102q82 -307 183 -676h6q23 201 57 1053h160q-39 -784 -100 -1270h-179zM776 1470l-49 -73q-262 135 -477 305l123 137q75 -83 197 -193t206 -176z" />
    <glyph glyph-name="wgrave" unicode="&#x1e81;" 
d="M618 729l181 -524h8q29 483 45 799h156q-33 -539 -101 -1004h-153l-193 561l-190 -561h-150q-70 444 -102 1004h164q23 -434 49 -795h8l176 520h102zM770 1204l-49 -74q-262 135 -477 306l123 137q75 -83 197 -193t206 -176z" />
    <glyph glyph-name="Wacute" unicode="&#x1e82;" 
d="M745 0l-184 676l-178 -676h-180q-59 459 -99 1270h168q31 -760 60 -1053h8q23 82 176 676h102q82 -307 183 -676h6q23 201 57 1053h160q-39 -784 -100 -1270h-179zM356 1483q88 61 205 169t191 195l133 -129q-83 -76 -225 -165t-257 -144z" />
    <glyph glyph-name="wacute" unicode="&#x1e83;" 
d="M618 729l181 -524h8q29 483 45 799h156q-33 -539 -101 -1004h-153l-193 561l-190 -561h-150q-70 444 -102 1004h164q23 -434 49 -795h8l176 520h102zM348 1217q88 61 204 169t191 195l134 -129q-83 -76 -225 -165t-257 -144z" />
    <glyph glyph-name="Wdieresis" unicode="&#x1e84;" 
d="M745 0l-184 676l-178 -676h-180q-59 459 -99 1270h168q31 -760 60 -1053h8q23 82 176 676h102q82 -307 183 -676h6q23 201 57 1053h160q-39 -784 -100 -1270h-179zM432 1432h-168l2 278h170zM883 1432h-168l2 278h170z" />
    <glyph glyph-name="wdieresis" unicode="&#x1e85;" 
d="M618 729l181 -524h8q29 483 45 799h156q-33 -539 -101 -1004h-153l-193 561l-190 -561h-150q-70 444 -102 1004h164q23 -434 49 -795h8l176 520h102zM424 1165h-168l2 279h170zM874 1165h-167l2 279h170z" />
    <glyph glyph-name="Ygrave" unicode="&#x1ef2;" 
d="M651 0h-172v422l-411 844l182 8l319 -688l314 684h176l-408 -848v-422zM774 1475l-49 -74q-262 135 -477 305l123 137q75 -82 197 -192t206 -176z" />
    <glyph glyph-name="ygrave" unicode="&#x1ef3;" 
d="M604 205l273 799h159q-154 -455 -321 -879q-102 -271 -211 -365t-361 -125l-14 154q193 29 263 72t122 166l-18 4q-143 311 -410 966l170 11q209 -532 328 -803h20zM782 1210l-49 -73q-262 135 -477 305l123 137q75 -83 197 -193t206 -176z" />
    <glyph glyph-name="endash" unicode="&#x2013;" 
d="M152 537v127h833l-14 -127h-819z" />
    <glyph glyph-name="emdash" unicode="&#x2014;" 
d="M113 537v127h909l-10 -127h-899z" />
    <glyph glyph-name="quoteleft" unicode="&#x2018;" 
d="M731 1384q-201 -246 -45 -589l-223 -17q-108 356 180 635z" />
    <glyph glyph-name="quoteright" unicode="&#x2019;" 
d="M424 766q199 246 43 590l225 16q53 -180 5 -343t-185 -292z" />
    <glyph glyph-name="quotesinglbase" unicode="&#x201a;" 
d="M412 -352q205 246 45 590l227 12q53 -176 3 -336t-187 -293z" />
    <glyph glyph-name="quotedblleft" unicode="&#x201c;" 
d="M504 1384q-186 -242 -41 -589l-219 -17q-49 176 -2 341t180 294zM936 1384q-184 -242 -31 -589l-221 -17q-51 174 -6 339t176 296z" />
    <glyph glyph-name="quotedblright" unicode="&#x201d;" 
d="M647 766q188 244 41 590l221 14q47 -172 0 -339t-180 -294zM213 764q184 242 33 592l221 14q49 -172 4 -338t-174 -295z" />
    <glyph glyph-name="quotedblbase" unicode="&#x201e;" 
d="M639 -352q190 240 41 590l225 12q45 -174 -3 -338t-181 -291zM207 -352q184 242 31 590l225 12q49 -170 3 -336t-177 -295z" />
    <glyph glyph-name="dagger" unicode="&#x2020;" 
d="M610 260l-98 -53l-27 14l2 748l-350 4l6 133l344 -6v325l162 -2l-4 -325l359 -6l-9 -131l-352 4z" />
    <glyph glyph-name="daggerdbl" unicode="&#x2021;" 
d="M612 154l-100 -52l-25 15v444l-364 6l8 127l356 -6v285l-350 6l6 127l344 -6v325l162 -2l-4 -325l359 -6l-9 -127l-352 6l-10 -285l358 -6l-8 -127l-356 6z" />
    <glyph glyph-name="bullet" unicode="&#x2022;" 
d="M827 612q1 -116 -75 -188t-191 -72t-189 72t-75 186q0 114 78 187q77 71 191 71t188 -70q73 -71 73 -186z" />
    <glyph glyph-name="ellipsis" unicode="&#x2026;" 
d="M283 0h-201l10 246h201zM657 0h-200l10 246h201zM1032 0h-201l11 246h200z" />
    <glyph glyph-name="guilsinglleft" unicode="&#x2039;" 
d="M756 -35l-498 455l10 166l500 452l111 -114l-488 -420l475 -424z" />
    <glyph glyph-name="guilsinglright" unicode="&#x203a;" 
d="M360 -35l-110 117l487 418l-475 424l111 114l497 -452l-10 -168z" />
    <glyph glyph-name="fraction" unicode="&#x2044;" 
d="M211 -328l-141 60l831 1812l141 -59z" />
    <glyph glyph-name="zero.sup" unicode="&#x2070;" 
d="M561 1380q-203 0 -203 -303q0 -151 54 -235t153 -84q100 0 152 79q51 79 51 227t-54 232t-153 84zM903 1080q0 -194 -96 -314t-254 -121q-158 0 -244 110q-86 109 -86 303t96 314t254 121q158 0 244 -110q86 -109 86 -303z" />
    <glyph glyph-name="four.sup" unicode="&#x2074;" 
d="M911 829l-106 2l2 -165h-127l2 165l-416 -2q-4 285 101 660l143 -10q-29 -96 -78 -295t-51 -242l303 -2l-4 270l127 11l-2 -281l117 2z" />
    <glyph glyph-name="five.sup" unicode="&#x2075;" 
d="M864 930q0 -115 -143 -192t-432 -95l-8 125q246 16 351 55t105 105q0 111 -436 141l31 406h508l-13 -117h-385l-16 -195q438 -40 438 -233z" />
    <glyph glyph-name="six.sup" unicode="&#x2076;" 
d="M569 756q84 0 134 44q51 44 51 120t-56 116t-146 30q-89 -9 -177 -69v-8q0 -115 55 -174t139 -59zM881 925q-1 -120 -93 -199t-230 -79t-224 85t-86 241q0 362 475 534l47 -112q-188 -68 -278 -145t-111 -183q98 82 217 93t201 -52t82 -183z" />
    <glyph glyph-name="seven.sup" unicode="&#x2077;" 
d="M885 1475v-115q-244 -359 -377 -709l-139 17q133 336 379 682l-5 6h-475l11 119h606z" />
    <glyph glyph-name="eight.sup" unicode="&#x2078;" 
d="M383 872q0 -56 47 -90t130 -34t131 32t48 72q0 41 -32 73q-33 32 -68 50t-104 53q-152 -61 -152 -156zM401 1284q-1 -45 47 -82t138 -80q147 59 147 152q0 51 -45 84t-122 33t-121 -31t-44 -76zM553 645q-141 0 -221 55t-80 148q0 137 201 219q-186 100 -187 209
q0 86 84 152t216 65q132 0 213 -54t81 -143q0 -131 -192 -215q98 -49 153 -97t55 -128t-90 -146q-92 -66 -233 -65z" />
    <glyph glyph-name="nine.sup" unicode="&#x2079;" 
d="M750 1149q0 115 -54 174t-138 59q-83 0 -135 -44t-52 -121q0 -76 56 -116t145 -30t178 70v8zM246 1211q0 120 93 200t229 80t224 -86t87 -242q-1 -360 -476 -532l-49 112q190 68 280 144q89 76 109 182q-98 -82 -216 -92q-117 -10 -199 52t-82 182z" />
    <glyph glyph-name="zero.inf" unicode="&#x2080;" 
d="M561 408q-203 0 -203 -304q0 -152 54 -236t153 -83q100 0 152 79q51 80 51 228t-53 232q-54 84 -154 84zM553 -328q-158 0 -244 110t-86 304t96 314t254 120t244 -110t86 -302q0 -194 -96 -315t-254 -121z" />
    <glyph glyph-name="one.inf" unicode="&#x2081;" 
d="M276 -307v112h256v480l-241 -15l-4 99l245 32v123l132 11v-730h233l-10 -112h-611z" />
    <glyph glyph-name="two.inf" unicode="&#x2082;" 
d="M872 -307h-604l-14 108q248 166 352 261q104 94 104 176t-94 120t-331 43l10 119q551 2 551 -241q0 -109 -98 -215t-312 -254h436v-117z" />
    <glyph glyph-name="three.inf" unicode="&#x2083;" 
d="M291 502h551l8 -109l-338 -250q358 -55 358 -217q0 -108 -140 -178t-441 -78l-10 123q461 14 460 129q0 109 -381 146v67l332 248v6l-399 -4v117z" />
    <glyph glyph-name="four.inf" unicode="&#x2084;" 
d="M911 -143l-106 2l2 -166h-127l2 166l-416 -2q-4 285 101 659l143 -10q-29 -96 -78 -295t-51 -242l303 -2l-4 271l127 10l-2 -281l117 2z" />
    <glyph glyph-name="five.inf" unicode="&#x2085;" 
d="M864 -43q0 -115 -143 -191t-432 -96l-8 125q246 16 351 55t105 105q0 111 -436 141l31 406h508l-13 -117h-385l-16 -195q438 -40 438 -233z" />
    <glyph glyph-name="six.inf" unicode="&#x2086;" 
d="M569 -217q84 0 134 44q51 44 51 120q0 75 -56 115t-146 31q-89 -9 -177 -68v-9q0 -115 55 -174t139 -59zM881 -48q-1 -120 -93 -199t-230 -79t-224 85t-86 241q0 362 475 535l47 -113q-188 -68 -278 -144t-111 -184q98 82 217 93t201 -52t82 -183z" />
    <glyph glyph-name="seven.inf" unicode="&#x2087;" 
d="M885 502v-115q-244 -359 -377 -709l-139 17q133 336 379 682l-5 6h-475l11 119h606z" />
    <glyph glyph-name="eight.inf" unicode="&#x2088;" 
d="M560 -225q83 -1 131 31t48 73t-32 73q-33 32 -68 50t-104 53q-152 -61 -152 -155q0 -55 47 -90t130 -35zM401 311q-1 -45 47 -82t138 -79q147 59 147 151q0 51 -45 84t-122 33t-121 -31t-44 -76zM553 -328q-141 0 -221 56t-80 147q0 137 201 219q-186 100 -187 209
q0 86 84 152q84 65 216 65t213 -54t81 -142q0 -131 -192 -215q98 -49 153 -97t55 -128t-90 -146q-92 -66 -233 -66z" />
    <glyph glyph-name="nine.inf" unicode="&#x2089;" 
d="M371 244q0 -76 56 -116t145 -30t178 70v8q0 115 -54 174q-54 60 -138 60q-83 0 -135 -45t-52 -121zM246 238q0 120 93 200t229 80t224 -86t87 -242q-1 -360 -476 -532l-49 113q190 68 280 143q89 76 109 182q-98 -82 -216 -92q-117 -10 -199 52t-82 182z" />
    <glyph glyph-name="colonmonetary" unicode="&#x20a1;" 
d="M131 612q0 365 358 514l25 293h119l-23 -252q92 25 150 33l20 219h119l-18 -205q43 6 139 11l8 -152q-70 -2 -174 -10l-76 -852q113 -14 203 -23l-29 -143q-96 6 -174 18l-18 -215h-119l21 236q-82 16 -144 37l-24 -273h-121l30 318q-272 133 -272 446zM281 648
q0 -232 157 -331l58 662q-215 -99 -215 -331zM684 227l72 824q-86 -12 -158 -35l-68 -744q62 -25 154 -45z" />
    <glyph glyph-name="naira" unicode="&#x20a6;" 
d="M334 346v-346h-137v346h-142v133h142v293h-142v135h142v363h147l168 -363h301l-2 363h135v-363h139v-135h-139v-293h139v-133h-139v-346h-147l-162 346h-303zM805 276h10l-2 519h-248zM332 975l2 -516h250l-242 516h-10z" />
    <glyph glyph-name="rupee" unicode="&#x20a8;" 
d="M1073 262q0 -125 -91 -208t-288 -66l-4 137q240 -25 240 131q0 103 -122 230q-46 48 -84 121t-38 149q0 116 90 196t273 64l4 -137q-227 25 -228 -119q0 -91 124 -223q46 -49 85 -124t39 -151zM465 878q0 162 -43 222t-137 41v-547l108 4q72 118 72 280zM285 0h-144v1268
q467 98 467 -340q0 -221 -116 -367l153 -549l-139 -20l-131 489l-90 -4v-477z" />
    <glyph glyph-name="Euro" unicode="&#x20ac;" 
d="M127 397v125h131q-6 52 -6 96t4 105h-131v125h151q47 178 204 293t472 174l27 -160q-272 -41 -394 -113t-157 -204h457l-6 -115h-469q-2 -27 -2 -86t6 -111h463l-7 -112h-432q43 -129 171 -205t384 -113l-22 -139q-311 35 -475 145t-215 295h-154z" />
    <glyph glyph-name="peso" unicode="&#x20b1;" 
d="M1094 754h-140q-35 -174 -189 -269q-155 -94 -403 -112v-373h-155v754h-154v137h154v377q352 61 549 -42t209 -335h129v-137zM362 766v-246q403 -27 445 246h-445zM362 887h445q-18 145 -133 215t-312 41v-256z" />
    <glyph glyph-name="rupeeindia" unicode="&#x20b9;" 
d="M172 748v118h473q-49 221 -477 267l10 137h826l-11 -142h-415q199 -84 227 -262h186v-118h-190q-27 -109 -135 -190t-281 -118q117 -37 241 -119t355 -262l-131 -90q-254 205 -379 283t-309 129l28 123q403 31 455 244h-473z" />
    <glyph glyph-name="ruble" unicode="&#x20bd;" 
d="M422 246v-246h-162v246h-172v127h172v176h-172v125h172v594q375 49 573 -35t197 -295q0 -186 -153 -279q-154 -92 -455 -106v-186h442l-14 -121h-428zM868 917q0 132 -114 189q-115 57 -332 35v-465q240 4 343 56t103 185z" />
    <glyph glyph-name="numero" unicode="&#x2116;" 
d="M1065 227h-414v121h414v-121zM855 1153q-41 0 -65 -74t-24 -211t26 -215t70 -78q43 0 67 75q23 75 23 211t-27 214q-28 78 -70 78zM80 0v1270h137l219 -844h4l-10 844l137 -2v-1270l-129 2l-225 905h-6l10 -905h-137zM848 451q-100 0 -156 100q-55 100 -55 298
q1 199 67 315t166 116t156 -100t55 -299q0 -199 -66 -315q-67 -115 -167 -115z" />
    <glyph glyph-name="published" unicode="&#x2117;" 
d="M520 293h-110v661q365 51 364 -219q0 -104 -71 -172t-183 -84v-186zM552 1163q-164 0 -266 -145t-102 -388t100 -383q100 -141 267 -141t279 142t112 388q0 245 -113 386t-277 141zM86 622q0 282 133 458t340 175q207 1 344 -163t137 -449t-144 -457t-352 -172t-333 163
t-125 445z" />
    <glyph glyph-name="servicemark" unicode="&#x2120;" 
d="M322 780q0 60 -124 136q-46 28 -85 75t-39 99q0 78 80 136t237 52l6 -100q-217 8 -217 -78q0 -59 125 -136q47 -30 86 -78t39 -100q0 -82 -88 -139t-266 -55v100q246 -10 246 88zM530 596v674h129l121 -410h4l113 410h131v-674h-106l2 518h-6l-109 -407h-59l-113 407h-6
l2 -518h-103z" />
    <glyph glyph-name="trademark" unicode="&#x2122;" 
d="M530 596v674h129l121 -410h4l113 410h131v-674h-106l2 518h-6l-109 -407h-59l-113 407h-6l2 -518h-103zM301 1174v-576h-104v576h-156l6 96h395v-96h-141z" />
    <glyph glyph-name="Omega" unicode="&#x2126;" 
d="M94 0v135h201q-150 349 -150 613t113 407q114 143 312 143t307 -142t109 -404t-155 -617h203v-135h-370l-5 10q162 424 162 731q0 193 -66 298q-67 105 -192 105t-193 -104t-67 -295q0 -295 166 -735l-4 -10h-371z" />
    <glyph glyph-name="onethird" unicode="&#x2153;" 
d="M291 379h551l8 -109l-338 -250q358 -55 358 -217q0 -109 -140 -179t-441 -77l-10 123q461 14 460 129q0 109 -381 146v67l332 248v6l-399 -4v117zM125 567v113h876v-113h-876zM276 870v113h256v479l-241 -14l-4 98l245 33v123l132 10v-729h233l-10 -113h-611z" />
    <glyph glyph-name="twothirds" unicode="&#x2154;" 
d="M291 379h551l8 -109l-338 -250q358 -55 358 -217q0 -109 -140 -179t-441 -77l-10 123q461 14 460 129q0 109 -381 146v67l332 248v6l-399 -4v117zM125 567v113h876v-113h-876zM872 870h-604l-14 109q248 166 352 261t104 176t-94 120t-331 43l10 119q551 2 551 -242
q0 -109 -98 -215t-312 -254h436v-117z" />
    <glyph glyph-name="onefifth" unicode="&#x2155;" 
d="M864 -166q0 -116 -143 -192t-432 -95l-8 125q246 16 351 56t105 104q0 111 -436 141l31 406h508l-13 -117h-385l-16 -194q438 -41 438 -234zM125 567v113h876v-113h-876zM276 870v113h256v479l-241 -14l-4 98l245 33v123l132 10v-729h233l-10 -113h-611z" />
    <glyph glyph-name="twofifths" unicode="&#x2156;" 
d="M864 -166q0 -116 -143 -192t-432 -95l-8 125q246 16 351 56t105 104q0 111 -436 141l31 406h508l-13 -117h-385l-16 -194q438 -41 438 -234zM125 567v113h876v-113h-876zM872 870h-604l-14 109q248 166 352 261t104 176t-94 120t-331 43l10 119q551 2 551 -242
q0 -109 -98 -215t-312 -254h436v-117z" />
    <glyph glyph-name="threefifths" unicode="&#x2157;" 
d="M864 -166q0 -116 -143 -192t-432 -95l-8 125q246 16 351 56t105 104q0 111 -436 141l31 406h508l-13 -117h-385l-16 -194q438 -41 438 -234zM125 567v113h876v-113h-876zM291 1679h551l8 -108l-338 -250q358 -55 358 -217q0 -108 -140 -178t-441 -78l-10 123
q461 14 460 129q0 109 -381 145v68l332 248v6l-399 -4v116z" />
    <glyph glyph-name="fourfifths" unicode="&#x2158;" 
d="M864 -166q0 -116 -143 -192t-432 -95l-8 125q246 16 351 56t105 104q0 111 -436 141l31 406h508l-13 -117h-385l-16 -194q438 -41 438 -234zM125 567v113h876v-113h-876zM911 1034l-106 2l2 -166h-127l2 166l-416 -2q-4 285 101 660l143 -11q-29 -97 -78 -295t-51 -241
l303 -2l-4 270l127 10l-2 -280l117 2z" />
    <glyph glyph-name="onesixth" unicode="&#x2159;" 
d="M375 -106q0 -114 55 -174t139 -60t134 44q51 44 51 120t-56 116t-146 30q-89 -10 -177 -68v-8zM881 -171q-1 -120 -93 -199t-230 -79t-224 85t-86 241q0 362 475 535l47 -113q-188 -69 -278 -145t-111 -183q98 81 217 93t201 -52t82 -183zM125 567v113h876v-113h-876z
M276 870v113h256v479l-241 -14l-4 98l245 33v123l132 10v-729h233l-10 -113h-611z" />
    <glyph glyph-name="fivesixths" unicode="&#x215a;" 
d="M375 -106q0 -114 55 -174t139 -60t134 44q51 44 51 120t-56 116t-146 30q-89 -10 -177 -68v-8zM881 -171q-1 -120 -93 -199t-230 -79t-224 85t-86 241q0 362 475 535l47 -113q-188 -69 -278 -145t-111 -183q98 81 217 93t201 -52t82 -183zM125 567v113h876v-113h-876z
M864 1135q0 -115 -143 -192t-432 -95l-8 125q246 16 351 55t105 105q0 111 -436 141l31 405h508l-13 -116h-385l-16 -195q438 -40 438 -233z" />
    <glyph glyph-name="oneeighth" unicode="&#x215b;" 
d="M560 -348q83 0 131 32t48 72t-32 73q-33 32 -68 50t-104 53q-152 -61 -152 -155q0 -55 47 -90t130 -35zM401 188q-1 -45 47 -82t138 -79q147 59 147 151q0 51 -45 84t-122 33t-121 -31t-44 -76zM553 -451q-141 -1 -221 55t-80 148q0 137 201 219q-186 100 -187 209
q0 86 84 152t216 66t213 -55q81 -54 81 -142q0 -131 -192 -215q98 -50 153 -98t55 -128t-90 -145q-92 -66 -233 -66zM125 567v113h876v-113h-876zM276 870v113h256v479l-241 -14l-4 98l245 33v123l132 10v-729h233l-10 -113h-611z" />
    <glyph glyph-name="threeeighths" unicode="&#x215c;" 
d="M560 -348q83 0 131 32t48 72t-32 73q-33 32 -68 50t-104 53q-152 -61 -152 -155q0 -55 47 -90t130 -35zM401 188q-1 -45 47 -82t138 -79q147 59 147 151q0 51 -45 84t-122 33t-121 -31t-44 -76zM553 -451q-141 -1 -221 55t-80 148q0 137 201 219q-186 100 -187 209
q0 86 84 152t216 66t213 -55q81 -54 81 -142q0 -131 -192 -215q98 -50 153 -98t55 -128t-90 -145q-92 -66 -233 -66zM125 567v113h876v-113h-876zM291 1679h551l8 -108l-338 -250q358 -55 358 -217q0 -108 -140 -178t-441 -78l-10 123q461 14 460 129q0 109 -381 145v68
l332 248v6l-399 -4v116z" />
    <glyph glyph-name="fiveeighths" unicode="&#x215d;" 
d="M560 -348q83 0 131 32t48 72t-32 73q-33 32 -68 50t-104 53q-152 -61 -152 -155q0 -55 47 -90t130 -35zM401 188q-1 -45 47 -82t138 -79q147 59 147 151q0 51 -45 84t-122 33t-121 -31t-44 -76zM553 -451q-141 -1 -221 55t-80 148q0 137 201 219q-186 100 -187 209
q0 86 84 152t216 66t213 -55q81 -54 81 -142q0 -131 -192 -215q98 -50 153 -98t55 -128t-90 -145q-92 -66 -233 -66zM125 567v113h876v-113h-876zM864 1135q0 -115 -143 -192t-432 -95l-8 125q246 16 351 55t105 105q0 111 -436 141l31 405h508l-13 -116h-385l-16 -195
q438 -40 438 -233z" />
    <glyph glyph-name="seveneighths" unicode="&#x215e;" 
d="M560 -348q83 0 131 32t48 72t-32 73q-33 32 -68 50t-104 53q-152 -61 -152 -155q0 -55 47 -90t130 -35zM401 188q-1 -45 47 -82t138 -79q147 59 147 151q0 51 -45 84t-122 33t-121 -31t-44 -76zM553 -451q-141 -1 -221 55t-80 148q0 137 201 219q-186 100 -187 209
q0 86 84 152t216 66t213 -55q81 -54 81 -142q0 -131 -192 -215q98 -50 153 -98t55 -128t-90 -145q-92 -66 -233 -66zM125 567v113h876v-113h-876zM885 1679v-114q-244 -359 -377 -709l-139 16q133 336 379 682l-5 7h-475l11 118h606z" />
    <glyph glyph-name="minus" unicode="&#x2212;" 
d="M160 530v140h807l-2 -140h-805z" />
    <glyph glyph-name="approxequal" unicode="&#x2248;" 
d="M111 248q115 317 271 317q76 0 144 -55q68 -54 124 -110t96 -56t76 52t83 159l103 -43q-61 -162 -122 -234t-138 -73q-78 0 -146 54q-68 53 -125 109t-99 56t-80 -55t-83 -162zM741 641q-55 0 -110 34t-94 76q-101 109 -152 109t-87 -53t-85 -164l-102 41
q115 320 271 318q76 0 144 -56q68 -55 124 -110q56 -56 96 -56t76 54t81 157l105 -43q-61 -162 -122 -234t-145 -73z" />
    <glyph glyph-name="notequal" unicode="&#x2260;" 
d="M160 309v142h276l115 313h-391v141h444l107 293l127 -39l-95 -254h224l-2 -141h-273l-117 -313h392l-2 -142h-441l-108 -295l-125 39l94 256h-225z" />
    <glyph glyph-name="lessequal" unicode="&#x2264;" 
d="M973 172v-141h-819v141h819zM342 733v-16l594 -311l-57 -132l-709 377l4 133l690 433l70 -125z" />
    <glyph glyph-name="greaterequal" unicode="&#x2265;" 
d="M154 172h819v-141h-819v141zM784 733l-589 359l67 125l692 -433l2 -133l-708 -377l-55 132l591 311v16z" />
    <glyph glyph-name="hcoslug" unicode="&#xe10b;" 
d="M928 -41q0 12 -12 12t-13 -12q1 -12 13 -12t12 12zM688 -43q-14 0 -14 11t6 18l20 -23q-6 -6 -12 -6zM221 -41v-10h43v10h-10v29h33v-29h-11v-10h43v10h-12v64h12v10h-43v-10h11v-25h-33v25h10v10h-43v-10h12v-64h-12zM596 -41v-10h39v10h-12v25q4 14 10 14v-2
q0 -8 10 -8t10 11t-12 11t-18 -14v12h-27v-10h8v-39h-8zM455 -41v-10h34v10h-8v39h23v-39h-8v-10h34v10h-8v80l-16 -4q-8 4 -17 4q-27 0 -26 -29v-2h-10v-10h10v-39h-8zM881 -21q-1 -24 -13 -24t-12 24t12 23q13 1 13 -23zM365 -21q-1 -24 -13 -24t-12 24t12 23q13 1 13 -23
zM410 -16q0 18 10 18t10 -18h-20zM553 -16q0 18 10 18t10 -18h-20zM836 -21q0 -32 32 -32t33 32q-1 32 -33 32t-32 -32zM352 -53q33 0 33 32t-33 32t-33 -32t33 -32zM410 -25h39q4 35 -28 35t-32 -32t33 -31q23 0 27 22h-11q-4 -12 -16 -12t-12 18zM553 -25h39q4 35 -28 35
t-32 -32t33 -31q23 0 27 22h-10q-4 -12 -16 -12t-13 18zM682 15q0 7 8 8q10 -1 10 -11t-8 -14q-10 10 -10 17zM793 37q-41 0 -41 -45t43 -45q33 0 36 35h-12q-4 -25 -20 -25q-25 0 -25 35t21 35q14 0 22 -25h12v33h-12v-8q-10 10 -24 10zM481 8v8q0 16 8 17l7 -2
q-2 -2 -2 -8t10 -7v-8h-23zM743 0h-28v-12h10q-4 -8 -10 -15q-4 3 -10 11t-9 10q16 10 16 24t-23 14q-24 0 -23 -22q0 -10 10 -20q-20 -6 -21 -23q1 -20 21 -20t31 10q10 -10 21 -10t15 18l-6 2q-2 -8 -5 -8t-11 8q8 8 14 21h8v12zM641 63q-8 0 -8 -12t17 -12t28 24l20 50h9
v10h-27v-10h8l-12 -31l-14 31h8v10h-37v-10h6q18 -37 25 -52q-1 -12 -13 -12q4 4 1 9t-11 5zM571 141v-80h9l6 13q6 -12 26 -12t21 31q0 32 -25 32q-14 0 -18 -14v41h-29v-11h10zM494 84v-21h10l2 7q8 -8 24 -8t17 18q-1 12 -19 18t-18 12t8 5q8 0 17 -11h10v21h-10l-3 -8
q-6 8 -16 8q-23 0 -22 -19q0 -14 18 -19t18 -11t-8 -6t-18 14h-10zM221 74v-11h47v11h-14v24h6q8 0 10 -12h11v35h-11q-2 -12 -10 -12h-6v28h16q12 0 19 -20h10v30h-78v-10h12v-63h-12zM367 74v-11h32v11h-6v22q0 16 13 17q8 0 8 -13v-26h-6v-11h34v11h-10v28q0 23 -18 23
q-12 0 -21 -14v12h-26v-10h8v-39h-8zM612 92q0 -20 -11 -20t-11 20t12 21q10 -1 10 -21zM330 117q12 0 12 -24t-12 -23q-12 0 -12 24t12 23zM330 125q-32 0 -33 -32q0 -32 33 -32t32 33q0 31 -32 31zM451 123h-11v-10h11v-31q0 -20 18 -21q16 0 23 21l-9 2q-2 -10 -8 -10
t-6 8v31h20v10h-20v16l-18 -2v-14zM748 381q40 -1 60 23q22 24 22 60t-22 58t-64 21q-42 0 -82 -58q-6 57 -76 58q14 20 14 57t-40 73t-110 36t-117 -40q-46 -40 -46 -94t47 -104q-125 -41 -125 -139q0 -60 48 -102t131 -42t147 70q68 -70 125 -70t92 40t36 106l-10 2
q-29 -45 -68 -45t-94 63q31 41 72 66q20 -39 60 -39zM431 285q-33 1 -57 25t-24 60t25 60q57 -53 114 -127q-24 -18 -58 -18zM510 475q35 23 63 51q45 -45 -2 -123q-47 58 -61 72zM410 610q0 41 43 41t43 -59q0 -35 -29 -76q-57 53 -57 94zM1024 1434v-1639h-922v1639h922z
" />
    <glyph glyph-name="check.1" unicode="&#xe10c;" 
d="M1042 1346q-268 -633 -448 -1385l-145 -12l-308 715l144 63l227 -553h8q139 674 354 1225z" />
    <glyph glyph-name="check.2" unicode="&#xe10d;" 
d="M725 -14l-211 436l-229 -447l-107 37l254 525l-237 444l153 55l172 -352l326 721l164 -64l-402 -784l277 -534z" />
    <glyph glyph-name="NUL" horiz-adv-x="0" 
 />
    <glyph glyph-name="zero.alt" 
d="M564 1157q-142 0 -216 -133t-74 -381t74 -389t216 -141t215 133t73 381t-73 389t-215 141zM577 1294q213 0 325 -168t112 -474t-126 -492t-337 -185q-211 0 -324 169t-113 475q0 307 126 491q125 184 337 184z" />
    <glyph glyph-name="colon.alt" 
d="M686 178h-244l4 238h244zM692 854h-241l2 238h243z" />
    <glyph glyph-name="guillemotleft.cap" 
d="M926 96l-348 455l8 166l346 450l121 -100l-353 -430l349 -444zM436 96l-348 455l8 166l346 450l121 -100l-348 -428l344 -446z" />
    <glyph glyph-name="guillemotright.cap" 
d="M197 96l-121 101l352 432l-348 442l123 96l348 -454l-8 -166zM684 96l-121 101l352 430l-348 444l123 96l350 -454l-10 -166z" />
    <glyph glyph-name="guilsinglleft.cap" 
d="M756 96l-498 455l10 166l500 452l111 -114l-488 -420l475 -424z" />
    <glyph glyph-name="guilsinglright.cap" 
d="M360 96l-110 117l487 418l-475 424l111 114l497 -452l-10 -168z" />
    <glyph glyph-name="parenleft.cap" 
d="M391 626q0 -202 132 -406t431 -441l-114 -105q-322 264 -467 494q-288 456 2 913q147 234 473 500l113 -104q-305 -238 -437 -443q-132 -206 -133 -408z" />
    <glyph glyph-name="parenright.cap" 
d="M735 627q0 203 -131 407t-430 439l113 108q322 -265 467 -495t145 -454t-147 -458t-473 -502l-113 105q305 239 437 443t132 407z" />
    <glyph glyph-name="bracketleft.cap" 
d="M281 -268v1790h669v-136h-510v-1519h518l-14 -135h-663z" />
    <glyph glyph-name="bracketright.cap" 
d="M690 -133v1517h-510v136h668v-1788h-672l6 135h508z" />
    <glyph glyph-name="braceleft.cap" 
d="M309 66q0 70 47 136q46 66 94 118t48 92q0 61 -80 103t-242 52l4 121q330 29 330 131q0 37 -51 89t-103 116t-53 129q0 229 637 432l53 -137q-281 -78 -405 -144t-125 -135q0 -45 49 -101t98 -114t49 -113t-58 -111t-181 -89q121 -31 178 -85t57 -120t-90 -171t-90 -163
q0 -80 119 -146t395 -151l-57 -135q-352 113 -488 198q-135 85 -135 198z" />
    <glyph glyph-name="braceright.cap" 
d="M666 88q0 50 -98 156t-97 166q0 60 58 116q58 55 180 90q-121 29 -179 83q-57 53 -57 113t46 120t91 116t45 105q1 81 -117 147t-397 150l58 135q352 -113 487 -197t135 -198q0 -68 -48 -134t-95 -120q-47 -53 -47 -92q0 -62 81 -104t242 -52l-6 -119q-330 -29 -330 -131
q0 -37 52 -89q52 -51 103 -115q52 -64 52 -132q0 -231 -635 -432l-53 140q276 78 403 143q126 66 126 135z" />
    <glyph glyph-name="registered.alt" 
d="M504 297h-111v659q187 33 273 -20t86 -163t-82 -198l110 -274l-116 -14l-84 241l-76 -4v-227zM552 1163q-164 0 -266 -145t-102 -388t102 -383q102 -141 266 -141q166 0 278 142t112 388q0 245 -113 386t-277 141zM86 622q0 282 133 458t340 175q207 1 344 -163t137 -449
t-144 -457t-351 -172t-333 163t-126 445z" />
    <glyph glyph-name="asterisk.alt" 
d="M498 827l82 -14l-7 -289l-155 27zM659 844l56 65l246 -153l-101 -121zM403 961l29 -80l-254 -138l-53 146zM725 991l-29 78l254 139l54 -147zM469 1108l-53 -66l-246 152l100 121zM631 1124l-80 15l4 288l156 -28z" />
    <glyph glyph-name="bullet.alt" 
d="M778 387h-436l4 444h436z" />
    <glyph glyph-name="R_p" 
d="M627 -4q0 721 -9 999l127 11l5 -70q70 90 155 90q176 0 176 -471q0 -580 -270 -580q-25 0 -49 7v-318l-135 -16v348zM829 113q66 0 93 90t26 299q0 391 -100 391q-43 0 -90 -47q4 -344 4 -715q26 -18 67 -18zM215 1149v-561l113 4q66 118 66 284t-43 230q-42 64 -136 43z
M215 0h-137v1268q244 53 348 -39q104 -93 104 -317t-108 -355l145 -545l-137 -18l-121 481l-94 -6v-469z" />
    <glyph glyph-name="fraction.afrc" 
d="M125 567v113h876v-113h-876z" />
    <glyph glyph-name="zero.num" 
d="M565 963q203 0 203 306q0 149 -54 233t-153 83q-203 0 -203 -303q0 -152 54 -236t153 -83zM903 1284q0 -194 -96 -314t-254 -120t-244 110t-86 303q0 195 96 315t254 120t244 -110t86 -304z" />
    <glyph glyph-name="one.num" 
d="M276 870v113h256v479l-241 -14l-4 98l245 33v123l132 10v-729h233l-10 -113h-611z" />
    <glyph glyph-name="two.num" 
d="M872 870h-604l-14 109q248 166 352 261t104 176t-94 120t-331 43l10 119q551 2 551 -242q0 -109 -98 -215t-312 -254h436v-117z" />
    <glyph glyph-name="three.num" 
d="M291 1679h551l8 -108l-338 -250q358 -55 358 -217q0 -108 -140 -178t-441 -78l-10 123q461 14 460 129q0 109 -381 145v68l332 248v6l-399 -4v116z" />
    <glyph glyph-name="four.num" 
d="M911 1034l-106 2l2 -166h-127l2 166l-416 -2q-4 285 101 660l143 -11q-29 -97 -78 -295t-51 -241l303 -2l-4 270l127 10l-2 -280l117 2z" />
    <glyph glyph-name="five.num" 
d="M864 1135q0 -115 -143 -192t-432 -95l-8 125q246 16 351 55t105 105q0 111 -436 141l31 405h508l-13 -116h-385l-16 -195q438 -40 438 -233z" />
    <glyph glyph-name="six.num" 
d="M569 961q84 0 134 44q51 43 51 119t-56 116t-146 31q-89 -9 -177 -69v-8q0 -115 55 -174t139 -59zM881 1130q-1 -120 -93 -199t-230 -79t-224 85t-86 241q0 362 475 534l47 -113q-188 -69 -278 -145t-111 -182q98 82 217 93t201 -52t82 -183z" />
    <glyph glyph-name="seven.num" 
d="M885 1679v-114q-244 -359 -377 -709l-139 16q133 336 379 682l-5 7h-475l11 118h606z" />
    <glyph glyph-name="eight.num" 
d="M560 952q83 0 131 32t48 73q0 69 -100 123q-35 18 -104 53q-152 -61 -152 -156q0 -55 47 -90t130 -35zM401 1489q-1 -45 47 -82t138 -80q147 59 147 152q0 51 -45 84t-122 33t-121 -32q-44 -30 -44 -75zM553 850q-141 0 -221 55t-80 148q0 137 201 219q-186 100 -187 209
q0 85 84 151t216 66t213 -54t81 -143q0 -131 -192 -215q98 -49 153 -97t55 -128q0 -79 -90 -145q-92 -66 -233 -66z" />
    <glyph glyph-name="nine.num" 
d="M371 1421q0 -75 56 -115t145 -30t178 70v8q0 115 -54 174t-138 59q-83 0 -135 -45t-52 -121zM246 1416q0 120 93 200t229 80t224 -86t87 -242q-1 -360 -476 -532l-49 112q190 68 280 144q89 76 109 182q-98 -82 -216 -92q-117 -10 -199 52t-82 182z" />
    <glyph glyph-name="zero.den" 
d="M561 285q-203 0 -203 -303q0 -152 54 -236t153 -84q100 0 152 79q51 79 51 227t-53 233q-54 84 -154 84zM553 -451q-158 0 -244 110q-86 109 -86 303t96 314t254 121t244 -109t86 -304t-96 -314q-96 -121 -254 -121z" />
    <glyph glyph-name="one.den" 
d="M276 -430v113h256v479l-241 -15l-4 99l245 33v122l132 11v-729h233l-10 -113h-611z" />
    <glyph glyph-name="two.den" 
d="M872 -430h-604l-14 108q248 166 352 262t104 176q0 81 -94 120t-331 43l10 118q551 2 551 -241q0 -109 -98 -215t-312 -254h436v-117z" />
    <glyph glyph-name="three.den" 
d="M291 379h551l8 -109l-338 -250q358 -55 358 -217q0 -109 -140 -179t-441 -77l-10 123q461 14 460 129q0 109 -381 146v67l332 248v6l-399 -4v117z" />
    <glyph glyph-name="four.den" 
d="M911 -266l-106 2l2 -166h-127l2 166l-416 -2q-4 285 101 659l143 -10q-29 -96 -78 -295t-51 -242l303 -2l-4 271l127 10l-2 -281l117 2z" />
    <glyph glyph-name="five.den" 
d="M864 -166q0 -116 -143 -192t-432 -95l-8 125q246 16 351 56t105 104q0 111 -436 141l31 406h508l-13 -117h-385l-16 -194q438 -41 438 -234z" />
    <glyph glyph-name="six.den" 
d="M375 -106q0 -114 55 -174t139 -60t134 44q51 44 51 120t-56 116t-146 30q-89 -10 -177 -68v-8zM881 -171q-1 -120 -93 -199t-230 -79t-224 85t-86 241q0 362 475 535l47 -113q-188 -69 -278 -145t-111 -183q98 81 217 93t201 -52t82 -183z" />
    <glyph glyph-name="seven.den" 
d="M885 379v-115q-244 -358 -377 -708l-139 16q133 336 379 682l-5 6h-475l11 119h606z" />
    <glyph glyph-name="eight.den" 
d="M560 -348q83 0 131 32t48 72t-32 73q-33 32 -68 50t-104 53q-152 -61 -152 -155q0 -55 47 -90t130 -35zM401 188q-1 -45 47 -82t138 -79q147 59 147 151q0 51 -45 84t-122 33t-121 -31t-44 -76zM553 -451q-141 -1 -221 55t-80 148q0 137 201 219q-186 100 -187 209
q0 86 84 152t216 66t213 -55q81 -54 81 -142q0 -131 -192 -215q98 -50 153 -98t55 -128t-90 -145q-92 -66 -233 -66z" />
    <glyph glyph-name="nine.den" 
d="M371 121q0 -76 56 -116t145 -30t178 70v8q0 115 -54 174t-138 59q-83 0 -135 -44q-52 -45 -52 -121zM246 116q0 120 93 200t229 79q136 0 224 -86t87 -241q-1 -361 -476 -533l-49 113q190 68 280 143q89 76 109 182q-98 -82 -216 -92q-117 -10 -199 52q-82 63 -82 183z
" />
    <glyph glyph-name="zero.small" 
d="M561 715q-203 0 -203 -303q0 -152 54 -236t153 -84q100 0 152 79q51 79 51 227t-53 233q-54 84 -154 84zM903 414q0 -194 -96 -314t-254 -120t-244 110t-86 302q0 194 96 315t254 121t244 -110t86 -304z" />
    <glyph glyph-name="one.small" 
d="M276 0v113h256v479l-241 -14l-4 98l245 33v122l132 11v-729h233l-10 -113h-611z" />
    <glyph glyph-name="two.small" 
d="M872 0h-604l-14 109q248 166 352 261t104 176t-94 120t-331 43l10 118q551 2 551 -241q0 -109 -98 -215t-312 -254h436v-117z" />
    <glyph glyph-name="three.small" 
d="M291 809h551l8 -109l-338 -249q358 -55 358 -218q0 -109 -140 -179t-441 -77l-10 123q461 14 460 129q0 109 -381 146v67l332 248v6l-399 -4v117z" />
    <glyph glyph-name="four.small" 
d="M911 164l-106 2l2 -166h-127l2 166l-416 -2q-4 285 101 659l143 -10q-29 -96 -78 -295t-51 -242l303 -2l-4 271l127 10l-2 -281l117 2z" />
    <glyph glyph-name="five.small" 
d="M864 264q0 -116 -143 -192t-432 -95l-8 125q246 16 351 56t105 104q0 111 -436 141l31 406h508l-13 -117h-385l-16 -194q438 -41 438 -234z" />
    <glyph glyph-name="six.small" 
d="M375 324q0 -114 55 -174t139 -60t134 44q51 44 51 120t-56 116t-146 30q-89 -10 -177 -68v-8zM881 259q-1 -121 -93 -199t-230 -78t-224 85t-86 240q0 362 475 535l47 -113q-188 -69 -278 -145t-111 -183q98 81 217 93t201 -52t82 -183z" />
    <glyph glyph-name="seven.small" 
d="M885 809v-115q-244 -358 -377 -708l-139 16q133 336 379 682l-5 6h-475l11 119h606z" />
    <glyph glyph-name="eight.small" 
d="M560 82q83 0 131 32t48 73q-1 41 -33 73t-67 49q-35 18 -104 53q-152 -61 -152 -155q0 -55 47 -90t130 -35zM566 725q-77 -1 -121 -31t-44 -75q-1 -45 47 -82t138 -80q147 59 147 151q0 51 -45 84t-122 33zM553 -20q-141 0 -221 55t-80 147q0 137 201 219
q-186 100 -187 209q0 86 84 152t216 66t213 -55q81 -54 81 -142q0 -131 -192 -215q98 -50 153 -98t55 -128t-90 -144q-92 -66 -233 -66z" />
    <glyph glyph-name="nine.small" 
d="M371 551q0 -76 56 -116q56 -39 145 -29t178 69v8q0 115 -54 174t-138 59q-83 0 -135 -44q-52 -45 -52 -121zM246 546q0 120 93 200t229 79q136 0 224 -86t87 -241q-1 -361 -476 -533l-49 113q190 68 280 143q89 76 109 182q-98 -82 -216 -92q-117 -9 -199 53t-82 182z
" />
    <glyph glyph-name="caron.alt" 
d="M416 1157q90 217 22 485l187 3q35 -264 -133 -515z" />
    <glyph glyph-name="commaaccent.rot" 
d="M680 1561q-90 -190 -12 -394l-205 -10q-13 109 19 223t114 207z" />
    <glyph glyph-name="underscore.alt" 
d="M1147 -102v-136h-1167v136h1167z" />
    </font>
</defs>
</svg>
